# Blender 4.3.2
# www.blender.org
o tree
v 5.987340 17.739450 4.166149
v 3.415990 0.007371 8.351000
v 0.424640 18.143209 6.469159
v -0.039830 0.007971 9.022560
v 6.351750 0.005650 6.408080
v 8.268940 16.954399 -1.364531
v 8.320520 0.003070 3.489580
v 9.022570 0.000020 0.039830
v 5.932930 16.247940 -6.883081
v 8.351010 -0.003030 -3.415990
v 6.408080 -0.005620 -6.351750
v 0.347700 16.033911 -9.156811
v 3.489580 -0.007351 -8.320520
v 0.039830 -0.007971 -9.022560
v -5.214990 16.437670 -6.853801
v -3.415990 -0.007371 -8.351000
v -6.351750 -0.005650 -6.408080
v -7.496590 17.222719 -1.323121
v -8.320520 -0.003070 -3.489580
v -9.022570 -0.000020 -0.039830
v -5.160580 17.929171 4.195428
v -8.351000 0.003030 3.415990
v -6.408080 0.005620 6.351750
v 0.424640 18.143209 6.469159
v -3.489580 0.007351 8.320520
v -0.039830 0.007971 9.022560
v 0.185240 35.462589 2.366047
v 5.203610 35.090328 0.284467
v 7.258310 34.036839 -4.647462
v 5.145740 32.919231 -9.540683
v 0.103400 32.392181 -11.528812
v -4.914970 32.764431 -9.447223
v -6.969680 33.817921 -4.515292
v -4.857100 34.935532 0.377927
v 0.185240 35.462589 2.366047
v 1.564380 53.542351 -2.018234
v 6.035640 52.479988 -3.752544
v 7.877680 51.390759 -8.173984
v 6.011450 50.912731 -12.692533
v 1.530170 51.325920 -14.661304
v -2.941100 52.388290 -12.926993
v -4.783140 53.477509 -8.505554
v -2.916910 53.955540 -3.986994
v 1.564380 53.542351 -2.018234
v 7.328830 71.006027 -4.198565
v 11.142700 69.349060 -5.675775
v 12.866470 68.558868 -9.660435
v 11.490370 69.098343 -13.818395
v 7.820500 70.651443 -15.713976
v 4.006630 72.308411 -14.236775
v 2.282860 73.098602 -10.252115
v 3.658960 72.559143 -6.094155
v 7.328830 71.006027 -4.198565
v 15.621530 88.635643 -3.242367
v 19.065319 87.252777 -4.548666
v 20.810760 87.007439 -8.066007
v 19.835390 88.043327 -11.733987
v 16.710569 89.753639 -13.403947
v 13.266770 91.136513 -12.097647
v 11.521330 91.381851 -8.580297
v 12.496710 90.345963 -4.912327
v 15.621530 88.635643 -3.242367
v 23.394590 107.146103 0.252062
v 26.529289 106.179832 -0.852768
v 28.198811 106.293053 -3.882718
v 27.425150 107.419418 -7.062878
v 24.661530 108.899132 -8.530358
v 21.526819 109.865387 -7.425528
v 19.857309 109.752167 -4.395578
v 20.630960 108.625809 -1.215418
v 23.394590 107.146103 0.252062
v 24.454830 109.044640 -3.912028
v 24.454830 109.044640 -3.912028
v 24.454830 109.044640 -3.912028
v 24.454830 109.044640 -3.912028
v 24.454830 109.044640 -3.912028
v 24.454830 109.044640 -3.912028
v 24.454830 109.044640 -3.912028
v 24.454830 109.044640 -3.912028
v 3.704070 64.781250 -11.809245
v 1.560460 75.252724 -9.693966
v -1.107320 73.282600 -5.499135
v 0.417130 63.351082 -6.820675
v 6.436610 64.467720 -6.316515
v 4.020320 74.707390 -4.977326
v 1.560460 75.252724 -9.693966
v 3.704070 64.781250 -11.809245
v -3.424830 88.558632 -3.708517
v -4.716220 87.134270 -1.578657
v -2.048600 88.130867 -1.227417
v -3.424830 88.558632 -3.708507
v -9.765180 101.278061 2.547742
v -10.646900 99.291451 4.258243
v -8.295840 100.642548 4.803192
v -9.765180 101.278061 2.547742
v -17.490780 110.240761 10.622281
v -18.128950 108.092667 12.059631
v -15.993720 109.543480 12.710371
v -17.490780 110.240761 10.622281
v -26.081409 117.572487 19.802340
v -26.243601 115.187302 20.718380
v -24.465210 116.789307 21.626921
v -26.081409 117.572487 19.802351
v -34.112110 119.791260 30.136631
v -34.112110 119.791260 30.136631
v 4.921900 71.710617 -9.024826
v 6.261450 82.596359 -6.435716
v 9.641860 80.807983 -2.698126
v 8.882620 70.387787 -4.519495
v 10.946350 71.475769 -10.202136
v 11.480380 82.186653 -7.526606
v 6.261450 82.596359 -6.435716
v 4.921900 71.710609 -9.024826
v 10.265580 96.775543 -0.161567
v 12.022410 95.492538 1.709333
v 13.045710 96.452522 -0.793477
v 10.265580 96.775543 -0.161567
v 13.965720 110.493736 7.396582
v 15.492490 108.698273 8.844051
v 16.588671 110.005814 6.667222
v 13.965720 110.493736 7.396582
v 18.878901 120.886436 16.869490
v 20.244040 118.930222 18.051500
v 21.369061 120.346512 16.098040
v 18.878901 120.886436 16.869490
v 24.515560 129.926239 27.549711
v 25.588051 127.699020 28.215891
v 26.832170 129.302887 26.655661
v 24.515560 129.926224 27.549711
v 31.625740 134.260452 38.569450
v 31.625740 134.260452 38.569450
v 10.972540 77.397400 -6.499416
v 13.648620 88.751694 -7.344357
v 17.765490 87.169083 -10.367897
v 15.874080 76.203163 -10.004255
v 10.421220 77.288269 -12.616546
v 13.138750 88.553757 -12.663747
v 13.648620 88.751694 -7.344357
v 10.972540 77.397400 -6.499416
v 20.241280 103.864433 -9.945237
v 22.338659 102.734253 -11.544138
v 19.945570 103.704720 -12.794767
v 20.241280 103.864433 -9.945237
v 28.038090 118.568222 -11.803549
v 29.759010 116.979874 -13.275099
v 27.693300 118.318443 -14.536428
v 28.038090 118.568222 -11.803549
v 37.989521 130.244431 -14.327629
v 39.465950 128.505402 -15.700009
v 37.623119 129.964798 -16.949669
v 37.989521 130.244431 -14.327629
v 49.268181 140.766418 -17.237951
v 50.282501 138.755569 -18.455410
v 48.838169 140.434464 -19.739841
v 49.268181 140.766418 -17.237951
v 61.490299 147.069122 -21.616032
v 61.490299 147.069122 -21.616032
v 15.655220 82.326271 -9.710227
v 14.880090 92.658234 -11.975467
v 11.421490 91.301811 -15.821667
v 11.657910 81.269577 -14.253366
v 9.620680 82.362343 -8.562077
v 9.625250 92.710800 -10.986036
v 14.880090 92.658234 -11.975467
v 15.655220 82.326271 -9.710227
v 12.740570 106.636803 -17.547388
v 10.899530 105.680077 -19.529318
v 9.919940 106.674843 -17.022598
v 12.740570 106.636803 -17.547388
v 11.679130 120.294899 -24.151129
v 9.941780 118.963799 -25.842169
v 8.957570 120.351532 -23.661480
v 11.679130 120.294899 -24.151129
v 10.364860 131.540176 -32.653130
v 8.714290 130.081085 -34.147873
v 7.743730 131.603470 -32.191372
v 10.364860 131.540176 -32.653130
v 8.900770 141.922867 -42.306931
v 7.360260 140.225952 -43.447903
v 6.376530 142.000458 -41.886501
v 8.900770 141.922867 -42.306931
v 6.074910 149.026184 -53.031933
v 6.074910 149.026184 -53.031933
v 14.997090 92.401077 -9.545567
v 14.122050 103.723106 -7.163698
v 13.293080 102.294296 -2.077798
v 13.983360 91.292107 -3.589247
v 19.715891 92.157257 -5.620187
v 18.255239 103.302498 -3.796968
v 14.122040 103.723106 -7.163698
v 14.997080 92.401077 -9.545567
v 12.710030 119.064003 -1.037999
v 12.299080 118.052551 1.615471
v 14.943800 118.728127 0.731251
v 12.710030 119.064003 -1.037999
v 10.489100 134.267578 5.283880
v 10.170900 132.847610 7.635970
v 12.678550 133.746078 6.891440
v 10.489100 134.267578 5.283880
v 7.939130 147.086304 13.502969
v 7.675540 145.523285 15.641889
v 10.066140 146.498093 14.992059
v 7.939130 147.086304 13.502969
v 5.141180 159.173569 22.908718
v 4.977190 157.336258 24.684078
v 7.227250 158.462494 24.211498
v 5.141180 159.173569 22.908718
v 2.880410 167.707550 34.195560
v 2.880410 167.707550 34.195560
v 16.771629 96.366287 -4.886157
v 18.485161 107.690933 -3.396548
v 23.416950 106.580132 -1.653368
v 22.485559 95.447617 -2.826487
v 21.493139 96.384827 -8.815807
v 22.601271 107.737930 -6.809838
v 18.485161 107.690933 -3.396548
v 16.771629 96.366287 -4.886157
v 22.676371 123.399429 0.002071
v 25.292879 122.638313 0.900591
v 24.888680 123.439903 -1.824629
v 22.676371 123.399429 0.002071
v 26.213150 138.944427 4.619480
v 28.658230 137.903717 5.386529
v 28.354170 139.009644 2.869720
v 26.213150 138.944427 4.619480
v 30.684059 152.537735 10.570568
v 32.991779 151.396774 11.248899
v 32.749352 152.611298 8.892279
v 30.684059 152.537735 10.570568
v 35.739071 165.605606 17.338976
v 37.856091 164.261871 17.855827
v 37.734150 165.693710 15.736968
v 35.739071 165.605606 17.338976
v 42.634331 176.049927 24.495386
v 42.634331 176.049927 24.495386
v 22.599251 100.133522 -3.738758
v 23.895090 111.202187 -5.342218
v 25.437281 110.244118 -10.372008
v 24.408440 99.300941 -9.549848
v 18.462959 100.180862 -8.280128
v 20.304779 111.298500 -9.303968
v 23.895090 111.202187 -5.342218
v 22.599251 100.133522 -3.738758
v 26.739010 126.726059 -9.101680
v 27.543030 126.089661 -11.781480
v 24.819670 126.807426 -11.232960
v 26.739010 126.726059 -9.101680
v 30.679199 142.155624 -12.011471
v 31.393040 141.316650 -14.548480
v 28.847759 142.292145 -14.079580
v 30.679199 142.155624 -12.011471
v 35.749458 155.976074 -15.544951
v 36.399670 155.064880 -17.960421
v 33.998112 156.135559 -17.543671
v 35.749470 155.976074 -15.544951
v 41.525299 169.447174 -19.480713
v 42.064758 168.379181 -21.744093
v 39.867599 169.652954 -21.420874
v 41.525299 169.447174 -19.480713
v 47.692570 180.790436 -25.134493
v 47.692570 180.790436 -25.134493
v 24.088230 103.754730 -7.381328
v 22.345160 115.042923 -8.264439
v 17.139870 114.165001 -9.118419
v 18.079479 102.965347 -8.384838
v 20.161869 103.734573 -2.657088
v 18.926380 115.027847 -4.152648
v 22.345160 115.042923 -8.264439
v 24.088230 103.754730 -7.381328
v 18.370291 130.985153 -9.910139
v 15.593760 130.414703 -10.355379
v 16.535170 130.979584 -7.704440
v 18.370291 130.985153 -9.910139
v 15.159400 146.934998 -12.487632
v 12.522660 146.200302 -12.884771
v 13.388230 146.937042 -10.363281
v 15.159400 146.934998 -12.487632
v 11.266250 161.496033 -15.697762
v 8.751150 160.702438 -16.061171
v 9.559870 161.502670 -13.654283
v 11.266250 161.496033 -15.697762
v 6.919840 175.866211 -19.324663
v 4.553780 174.937210 -19.630104
v 5.275850 175.880280 -17.362103
v 6.919840 175.866211 -19.324663
v 0.827450 188.360779 -22.864763
v 0.827450 188.360779 -22.864763
vn 0.3798 0.1372 0.9148
vn 0.7066 0.1432 0.6930
vn 0.0034 0.1946 0.9809
vn -0.0042 0.1395 0.9902
vn 0.7004 0.1037 0.7061
vn 0.9214 0.0861 0.3790
vn 0.9981 0.0606 -0.0104
vn 0.9990 0.0448 0.0042
vn 0.9228 0.0292 -0.3842
vn 0.7052 -0.0130 -0.7089
vn 0.7102 -0.0022 -0.7040
vn 0.3832 0.0009 -0.9237
vn -0.0023 -0.0641 -0.9979
vn 0.0044 -0.0085 -1.0000
vn -0.3790 0.0181 -0.9252
vn -0.7065 0.0023 -0.7077
vn -0.7036 0.0294 -0.7100
vn -0.9190 0.0699 -0.3879
vn -0.9975 0.0706 -0.0042
vn -0.9961 0.0879 -0.0047
vn -0.9190 0.1254 0.3737
vn -0.7022 0.1578 0.6943
vn -0.7041 0.1329 0.6976
vn -0.3810 0.1530 0.9118
vn 0.0032 0.1946 0.9809
vn -0.0043 0.1395 0.9902
vn 0.0079 0.2335 0.9723
vn 0.7103 0.1653 0.6842
vn 1.0000 -0.0052 -0.0044
vn 0.7029 -0.1051 -0.7035
vn -0.0047 -0.1565 -0.9877
vn -0.7099 -0.0831 -0.6994
vn -0.9965 0.0823 -0.0115
vn -0.7022 0.1875 0.6869
vn 0.0077 0.2335 0.9723
vn 0.0018 0.1616 0.9869
vn 0.7036 0.0442 0.7093
vn 0.9800 -0.1964 0.0320
vn 0.7014 -0.1872 -0.6877
vn 0.0155 -0.0959 -0.9953
vn -0.6937 0.0244 -0.7198
vn -0.9646 0.2606 -0.0402
vn -0.6929 0.2567 0.6738
vn 0.0016 0.1616 0.9869
vn -0.0446 0.0260 0.9987
vn 0.6483 -0.1839 0.7388
vn 0.9322 -0.3582 0.0513
vn 0.6986 -0.2467 -0.6716
vn 0.0703 0.0309 -0.9970
vn -0.6267 0.2418 -0.7408
vn -0.9085 0.4149 -0.0490
vn -0.6780 0.3076 0.6676
vn -0.0447 0.0260 0.9987
vn -0.1007 -0.0987 0.9900
vn 0.5860 -0.3293 0.7404
vn 0.9238 -0.3786 0.0579
vn 0.7218 -0.2047 -0.6612
vn 0.1242 0.1523 -0.9805
vn -0.5610 0.3832 -0.7338
vn -0.9003 0.4326 -0.0477
vn -0.6978 0.2597 0.6676
vn -0.1008 -0.0986 0.9900
vn 0.1340 0.4517 0.8821
vn 0.6562 0.0406 0.7535
vn 0.9380 0.2883 0.1926
vn 0.8332 0.2544 -0.4910
vn 0.3373 0.7238 -0.6020
vn -0.3275 0.6450 -0.6904
vn -0.4620 0.8802 0.1087
vn -0.5011 0.5353 0.6799
vn 0.1338 0.4518 0.8820
vn 0.3163 0.8302 0.4590
vn 0.5563 0.7605 0.3349
vn 0.5856 0.7983 0.1403
vn 0.4747 0.8801 -0.0065
vn 0.2890 0.9572 -0.0172
vn 0.1394 0.9837 0.1136
vn 0.1131 0.9449 0.3072
vn 0.3161 0.8303 0.4590
vn 0.0216 0.2721 -0.9620
vn 0.0415 0.2077 -0.9773
vn -0.8736 -0.2431 0.4216
vn -0.8828 -0.1925 0.4284
vn 0.8130 0.1199 0.5699
vn 0.7934 0.1650 0.5859
vn 0.0415 0.2078 -0.9773
vn -0.0260 0.3901 -0.9204
vn -0.8285 -0.4070 0.3847
vn 0.7999 0.1485 0.5814
vn -0.0260 0.3902 -0.9204
vn -0.0713 0.4708 -0.8793
vn -0.7357 -0.6091 0.2962
vn 0.7971 0.1486 0.5853
vn -0.0714 0.4710 -0.8793
vn -0.1740 0.6030 -0.7785
vn -0.6194 -0.7626 0.1865
vn 0.7832 0.1684 0.5985
vn -0.1740 0.6031 -0.7785
vn -0.2943 0.6963 -0.6546
vn -0.5355 -0.8383 0.1025
vn 0.7331 0.1951 0.6516
vn -0.2944 0.6964 -0.6546
vn -0.4696 -0.8820 0.0388
vn 0.3599 0.9295 0.0801
vn -0.9279 0.2418 -0.2837
vn -0.9346 0.1883 -0.3018
vn 0.1788 -0.2265 0.9575
vn 0.1814 -0.1821 0.9664
vn 0.7631 0.1222 -0.6346
vn 0.7721 0.1724 -0.6116
vn -0.9279 0.2420 -0.2837
vn -0.9089 0.3414 -0.2394
vn 0.1612 -0.3746 0.9131
vn 0.7715 0.1616 -0.6153
vn -0.8920 0.4045 -0.2020
vn 0.1158 -0.5647 0.8171
vn 0.7772 0.1698 -0.6060
vn -0.8919 0.4046 -0.2020
vn -0.8440 0.5262 -0.1032
vn 0.0601 -0.7134 0.6981
vn 0.7873 0.1956 -0.5847
vn -0.8440 0.5263 -0.1031
vn -0.7815 0.6237 0.0195
vn 0.0163 -0.7922 0.6101
vn 0.8226 0.2355 -0.5175
vn -0.7814 0.6237 0.0196
vn -0.0161 -0.8403 0.5419
vn 0.0852 0.9073 -0.4118
vn -0.3866 0.1996 0.9004
vn -0.3988 0.1623 0.9026
vn 0.9736 -0.2121 -0.0840
vn 0.9814 -0.1721 -0.0855
vn -0.5545 0.1318 -0.8216
vn -0.5285 0.1934 -0.8266
vn -0.3865 0.1996 0.9004
vn -0.3989 0.1622 0.9025
vn -0.3538 0.2763 0.8936
vn 0.9340 -0.3490 -0.0762
vn -0.5249 0.1969 -0.8281
vn -0.3539 0.2763 0.8936
vn -0.3335 0.3157 0.8883
vn 0.8457 -0.5307 -0.0555
vn -0.5032 0.2236 -0.8347
vn -0.3335 0.3158 0.8883
vn -0.2552 0.4213 0.8703
vn 0.7365 -0.6758 -0.0303
vn -0.4715 0.2622 -0.8420
vn -0.2551 0.4214 0.8703
vn -0.1543 0.5121 0.8450
vn 0.6564 -0.7544 -0.0104
vn -0.3922 0.3180 -0.8632
vn -0.1543 0.5121 0.8449
vn 0.5964 -0.8027 0.0036
vn -0.4684 0.8828 -0.0366
vn 0.9398 0.1594 0.3024
vn 0.9408 0.1392 0.3091
vn -0.1841 -0.1896 -0.9645
vn -0.1856 -0.1560 -0.9702
vn -0.7602 0.1495 0.6322
vn -0.7649 0.2298 0.6018
vn 0.9397 0.1595 0.3024
vn 0.9408 0.1393 0.3092
vn 0.9367 0.2049 0.2839
vn -0.1782 -0.3143 -0.9325
vn -0.7674 0.2466 0.5919
vn 0.9367 0.2050 0.2839
vn 0.9355 0.2061 0.2871
vn -0.1651 -0.4919 -0.8548
vn -0.7752 0.2954 0.5584
vn 0.9355 0.2061 0.2870
vn 0.9286 0.2848 0.2380
vn -0.1500 -0.6286 -0.7631
vn -0.7815 0.3524 0.5149
vn 0.9285 0.2849 0.2380
vn 0.9175 0.3613 0.1663
vn -0.1393 -0.7000 -0.7004
vn -0.7974 0.4333 0.4200
vn -0.1326 -0.7389 -0.6607
vn 0.1137 0.8418 0.5276
vn -0.3592 0.2220 -0.9065
vn -0.3524 0.1673 -0.9208
vn -0.6347 -0.1685 0.7542
vn -0.6372 -0.1440 0.7571
vn 0.9777 0.0991 0.1850
vn 0.9716 0.1316 0.1967
vn -0.3523 0.1673 -0.9208
vn -0.3710 0.2986 -0.8793
vn -0.6243 -0.2687 0.7335
vn 0.9772 0.0995 0.1876
vn -0.3709 0.2986 -0.8794
vn -0.3808 0.3500 -0.8558
vn -0.6032 -0.4204 0.6778
vn 0.9800 0.0812 0.1815
vn -0.3808 0.3501 -0.8558
vn -0.4024 0.4568 -0.7934
vn -0.5797 -0.5346 0.6149
vn 0.9789 0.0882 0.1845
vn -0.4023 0.4568 -0.7934
vn -0.4296 0.5622 -0.7067
vn -0.5650 -0.5922 0.5745
vn 0.9663 0.1275 0.2238
vn -0.4295 0.5622 -0.7067
vn -0.5560 -0.6201 0.5536
vn 0.5248 0.7262 -0.4440
vn -0.9724 0.1415 0.1855
vn -0.9755 0.1241 0.1815
vn 0.6321 -0.1542 0.7594
vn 0.6343 -0.1333 0.7615
vn 0.3551 0.1296 -0.9258
vn 0.3679 0.1974 -0.9087
vn -0.9755 0.1242 0.1816
vn -0.9664 0.1690 0.1935
vn 0.6203 -0.2448 0.7452
vn 0.3713 0.2049 -0.9056
vn -0.9665 0.1689 0.1934
vn -0.9692 0.1585 0.1886
vn 0.5906 -0.3889 0.7070
vn 0.3840 0.2403 -0.8915
vn -0.9529 0.2179 0.2108
vn 0.5585 -0.4957 0.6651
vn 0.3994 0.2873 -0.8706
vn -0.9529 0.2180 0.2108
vn -0.9250 0.2879 0.2478
vn 0.5388 -0.5479 0.6399
vn 0.4370 0.3669 -0.8212
vn -0.9250 0.2880 0.2478
vn 0.5298 -0.5690 0.6289
vn -0.4722 0.6887 -0.5502
vn 0.2270 0.1283 0.9654
vn 0.2240 0.1143 0.9679
vn 0.7325 -0.1322 -0.6678
vn 0.7334 -0.1192 -0.6693
vn -0.9416 0.1278 -0.3116
vn -0.9265 0.1938 -0.3226
vn 0.2270 0.1284 0.9654
vn 0.2239 0.1143 0.9679
vn 0.2311 0.1401 0.9628
vn 0.7233 -0.2035 -0.6599
vn -0.9250 0.1970 -0.3248
vn 0.2311 0.1400 0.9628
vn 0.2226 0.1123 0.9684
vn 0.6949 -0.3307 -0.6386
vn -0.9142 0.2290 -0.3344
vn 0.2346 0.1519 0.9602
vn 0.6667 -0.4168 -0.6179
vn -0.8968 0.2754 -0.3464
vn 0.2345 0.1519 0.9602
vn 0.2602 0.2103 0.9424
vn 0.6524 -0.4541 -0.6068
vn -0.8527 0.3620 -0.3766
vn 0.2602 0.2104 0.9424
vn 0.6507 -0.4601 -0.6041
vn -0.5797 0.5935 0.5583
vn 0.9242 0.1381 -0.3562
vn 0.9283 0.1159 -0.3534
vn -0.7640 -0.1112 -0.6356
vn -0.7645 -0.1058 -0.6358
vn -0.1779 0.1104 0.9778
vn -0.1871 0.1609 0.9691
vn 0.9283 0.1159 -0.3533
vn 0.9213 0.1491 -0.3592
vn -0.7583 -0.1627 -0.6312
vn -0.1859 0.1463 0.9716
vn 0.9213 0.1490 -0.3592
vn 0.9259 0.1272 -0.3556
vn -0.7397 -0.2705 -0.6162
vn -0.1896 0.1540 0.9697
vn 0.9173 0.1641 -0.3629
vn -0.7238 -0.3350 -0.6032
vn -0.1970 0.1818 0.9634
vn 0.8973 0.2260 -0.3792
vn -0.7178 -0.3557 -0.5985
vn -0.2225 0.2536 0.9414
vn 0.8973 0.2262 -0.3792
vn -0.7207 -0.3450 -0.6014
vn 0.6717 0.4860 0.5592
vt 0.062500 0.000000
vt 0.125000 0.474730
vt 0.000000 0.474730
vt 0.000000 0.000000
vt 0.125000 0.000000
vt 0.187500 0.000000
vt 0.250000 0.474730
vt 0.250000 0.000000
vt 0.312500 0.000000
vt 0.375000 0.474730
vt 0.375000 0.000000
vt 0.437500 0.000000
vt 0.500000 0.474730
vt 0.500000 0.000000
vt 0.562500 0.000000
vt 0.625000 0.474730
vt 0.625000 0.000000
vt 0.687500 0.000000
vt 0.750000 0.474730
vt 0.750000 0.000000
vt 0.812500 0.000000
vt 0.875000 0.474730
vt 0.875000 0.000000
vt 0.937500 0.000000
vt 1.000000 0.474730
vt 1.000000 0.000000
vt 0.000000 0.975760
vt 0.125000 0.975760
vt 0.250000 0.975760
vt 0.375000 0.975760
vt 0.500000 0.975760
vt 0.625000 0.975760
vt 0.750000 0.975760
vt 0.875000 0.975760
vt 1.000000 0.975760
vt 0.000000 1.561290
vt 0.125000 1.561290
vt 0.250000 1.561290
vt 0.375000 1.561290
vt 0.500000 1.561290
vt 0.625000 1.561290
vt 0.750000 1.561290
vt 0.875000 1.561290
vt 1.000000 1.561290
vt 0.000000 2.199000
vt 0.125000 2.199000
vt 0.250000 2.199000
vt 0.375000 2.199000
vt 0.500000 2.199000
vt 0.625000 2.199000
vt 0.750000 2.199000
vt 0.875000 2.199000
vt 1.000000 2.199000
vt 0.000000 2.910920
vt 0.125000 2.910920
vt 0.250000 2.910920
vt 0.375000 2.910920
vt 0.500000 2.910920
vt 0.625000 2.910920
vt 0.750000 2.910920
vt 0.875000 2.910920
vt 1.000000 2.910920
vt 0.000000 3.693000
vt 0.125000 3.693000
vt 0.250000 3.693000
vt 0.375000 3.693000
vt 0.500000 3.693000
vt 0.625000 3.693000
vt 0.750000 3.693000
vt 0.875000 3.693000
vt 1.000000 3.693000
vt 0.062500 3.655810
vt 0.187500 3.655810
vt 0.312500 3.655810
vt 0.437500 3.655810
vt 0.562500 3.655810
vt 0.687500 3.655810
vt 0.812500 3.655810
vt 0.937500 3.655810
vt 0.000490 0.150000
vt 0.000490 0.000000
vt 0.333170 0.150000
vt 0.333170 0.000000
vt 0.665860 0.000000
vt 0.665860 0.150000
vt 0.998540 0.150000
vt 0.998540 0.000000
vt 0.000490 0.300000
vt 0.333170 0.300000
vt 0.665860 0.300000
vt 0.998540 0.300000
vt 0.000490 0.450000
vt 0.333170 0.450000
vt 0.665860 0.450000
vt 0.998540 0.450000
vt 0.000490 0.600000
vt 0.333170 0.600000
vt 0.665860 0.600000
vt 0.998540 0.600000
vt 0.000490 0.750000
vt 0.333170 0.750000
vt 0.665860 0.750000
vt 0.998540 0.750000
vt 0.333170 0.900000
vt 0.998540 0.900000
s 1
f 2/1/1 1/2/2 3/3/3
f 4/4/4 2/1/1 3/3/3
f 5/5/5 1/2/2 2/1/1
f 7/6/6 6/7/7 1/2/2
f 5/5/5 7/6/6 1/2/2
f 8/8/8 6/7/7 7/6/6
f 10/9/9 9/10/10 6/7/7
f 8/8/8 10/9/9 6/7/7
f 11/11/11 9/10/10 10/9/9
f 13/12/12 12/13/13 9/10/10
f 11/11/11 13/12/12 9/10/10
f 14/14/14 12/13/13 13/12/12
f 16/15/15 15/16/16 12/13/13
f 14/14/14 16/15/15 12/13/13
f 17/17/17 15/16/16 16/15/15
f 19/18/18 18/19/19 15/16/16
f 17/17/17 19/18/18 15/16/16
f 20/20/20 18/19/19 19/18/18
f 22/21/21 21/22/22 18/19/19
f 20/20/20 22/21/21 18/19/19
f 23/23/23 21/22/22 22/21/21
f 25/24/24 24/25/25 21/22/22
f 23/23/23 25/24/24 21/22/22
f 26/26/26 24/25/25 25/24/24
f 27/27/27 3/3/3 28/28/28
f 1/2/2 28/28/28 3/3/3
f 1/2/2 6/7/7 28/28/28
f 29/29/29 28/28/28 6/7/7
f 29/29/29 6/7/7 30/30/30
f 9/10/10 30/30/30 6/7/7
f 9/10/10 12/13/13 30/30/30
f 31/31/31 30/30/30 12/13/13
f 31/31/31 12/13/13 32/32/32
f 15/16/16 32/32/32 12/13/13
f 15/16/16 18/19/19 32/32/32
f 33/33/33 32/32/32 18/19/19
f 33/33/33 18/19/19 34/34/34
f 21/22/22 34/34/34 18/19/19
f 21/22/22 24/25/25 34/34/34
f 35/35/35 34/34/34 24/25/25
f 36/36/36 27/27/27 37/37/37
f 28/28/28 37/37/37 27/27/27
f 28/28/28 29/29/29 37/37/37
f 38/38/38 37/37/37 29/29/29
f 38/38/38 29/29/29 39/39/39
f 30/30/30 39/39/39 29/29/29
f 30/30/30 31/31/31 39/39/39
f 40/40/40 39/39/39 31/31/31
f 40/40/40 31/31/31 41/41/41
f 32/32/32 41/41/41 31/31/31
f 32/32/32 33/33/33 41/41/41
f 42/42/42 41/41/41 33/33/33
f 42/42/42 33/33/33 43/43/43
f 34/34/34 43/43/43 33/33/33
f 34/34/34 35/35/35 43/43/43
f 44/44/44 43/43/43 35/35/35
f 45/45/45 36/36/36 46/46/46
f 37/37/37 46/46/46 36/36/36
f 37/37/37 38/38/38 46/46/46
f 47/47/47 46/46/46 38/38/38
f 47/47/47 38/38/38 48/48/48
f 39/39/39 48/48/48 38/38/38
f 39/39/39 40/40/40 48/48/48
f 49/49/49 48/48/48 40/40/40
f 49/49/49 40/40/40 50/50/50
f 41/41/41 50/50/50 40/40/40
f 41/41/41 42/42/42 50/50/50
f 51/51/51 50/50/50 42/42/42
f 51/51/51 42/42/42 52/52/52
f 43/43/43 52/52/52 42/42/42
f 43/43/43 44/44/44 52/52/52
f 53/53/53 52/52/52 44/44/44
f 54/54/54 45/45/45 55/55/55
f 46/46/46 55/55/55 45/45/45
f 46/46/46 47/47/47 55/55/55
f 56/56/56 55/55/55 47/47/47
f 56/56/56 47/47/47 57/57/57
f 48/48/48 57/57/57 47/47/47
f 48/48/48 49/49/49 57/57/57
f 58/58/58 57/57/57 49/49/49
f 58/58/58 49/49/49 59/59/59
f 50/50/50 59/59/59 49/49/49
f 50/50/50 51/51/51 59/59/59
f 60/60/60 59/59/59 51/51/51
f 60/60/60 51/51/51 61/61/61
f 52/52/52 61/61/61 51/51/51
f 52/52/52 53/53/53 61/61/61
f 62/62/62 61/61/61 53/53/53
f 63/63/63 54/54/54 64/64/64
f 55/55/55 64/64/64 54/54/54
f 55/55/55 56/56/56 64/64/64
f 65/65/65 64/64/64 56/56/56
f 65/65/65 56/56/56 66/66/66
f 57/57/57 66/66/66 56/56/56
f 57/57/57 58/58/58 66/66/66
f 67/67/67 66/66/66 58/58/58
f 67/67/67 58/58/58 68/68/68
f 59/59/59 68/68/68 58/58/58
f 59/59/59 60/60/60 68/68/68
f 69/69/69 68/68/68 60/60/60
f 69/69/69 60/60/60 70/70/70
f 61/61/61 70/70/70 60/60/60
f 61/61/61 62/62/62 70/70/70
f 71/71/71 70/70/70 62/62/62
f 63/63/63 64/64/64 72/72/72
f 64/64/64 65/65/65 73/73/73
f 65/65/65 66/66/66 74/74/74
f 66/66/66 67/67/67 75/75/75
f 67/67/67 68/68/68 76/76/76
f 68/68/68 69/69/69 77/77/77
f 69/69/69 70/70/70 78/78/78
f 70/70/70 71/71/71 79/79/79
f 81/80/80 80/81/81 82/82/82
f 80/81/81 83/83/83 82/82/82
f 83/83/83 84/84/84 82/82/82
f 82/82/82 84/84/84 85/85/85
f 85/85/85 84/84/84 86/86/80
f 84/84/84 87/87/86 86/86/80
f 88/88/87 81/80/80 89/89/88
f 81/80/80 82/82/82 89/89/88
f 82/82/82 85/85/85 89/89/88
f 89/89/88 85/85/85 90/90/89
f 90/90/89 85/85/85 91/91/90
f 85/85/85 86/86/80 91/91/90
f 92/92/91 88/88/87 93/93/92
f 88/88/87 89/89/88 93/93/92
f 89/89/88 90/90/89 93/93/92
f 93/93/92 90/90/89 94/94/93
f 94/94/93 90/90/89 95/95/94
f 90/90/89 91/91/90 95/95/94
f 96/96/95 92/92/91 97/97/96
f 92/92/91 93/93/92 97/97/96
f 93/93/92 94/94/93 97/97/96
f 97/97/96 94/94/93 98/98/97
f 98/98/97 94/94/93 99/99/98
f 94/94/93 95/95/94 99/99/98
f 100/100/99 96/96/95 101/101/100
f 96/96/95 97/97/96 101/101/100
f 97/97/96 98/98/97 101/101/100
f 101/101/100 98/98/97 102/102/101
f 102/102/101 98/98/97 103/103/102
f 98/98/97 99/99/98 103/103/102
f 100/100/99 101/101/100 104/104/103
f 101/101/100 102/102/101 104/104/103
f 102/102/101 103/103/102 105/105/104
f 107/80/105 106/81/106 108/82/107
f 106/81/106 109/83/108 108/82/107
f 109/83/108 110/84/109 108/82/107
f 108/82/107 110/84/109 111/85/110
f 111/85/110 110/84/109 112/86/111
f 110/84/109 113/87/106 112/86/111
f 114/88/112 107/80/105 115/89/113
f 107/80/105 108/82/107 115/89/113
f 108/82/107 111/85/110 115/89/113
f 115/89/113 111/85/110 116/90/114
f 116/90/114 111/85/110 117/91/112
f 111/85/110 112/86/111 117/91/112
f 118/92/115 114/88/112 119/93/116
f 114/88/112 115/89/113 119/93/116
f 115/89/113 116/90/114 119/93/116
f 119/93/116 116/90/114 120/94/117
f 120/94/117 116/90/114 121/95/118
f 116/90/114 117/91/112 121/95/118
f 122/96/119 118/92/115 123/97/120
f 118/92/115 119/93/116 123/97/120
f 119/93/116 120/94/117 123/97/120
f 123/97/120 120/94/117 124/98/121
f 124/98/121 120/94/117 125/99/122
f 120/94/117 121/95/118 125/99/122
f 126/100/123 122/96/119 127/101/124
f 122/96/119 123/97/120 127/101/124
f 123/97/120 124/98/121 127/101/124
f 127/101/124 124/98/121 128/102/125
f 128/102/125 124/98/121 129/103/126
f 124/98/121 125/99/122 129/103/126
f 126/100/123 127/101/124 130/104/127
f 127/101/124 128/102/125 130/104/127
f 128/102/125 129/103/126 131/105/128
f 133/80/129 132/81/130 134/82/131
f 132/81/130 135/83/132 134/82/131
f 135/83/132 136/84/133 134/82/131
f 134/82/131 136/84/133 137/85/134
f 137/85/134 136/84/133 138/86/135
f 136/84/133 139/87/136 138/86/135
f 140/88/137 133/80/129 141/89/138
f 133/80/129 134/82/131 141/89/138
f 134/82/131 137/85/134 141/89/138
f 141/89/138 137/85/134 142/90/139
f 142/90/139 137/85/134 143/91/140
f 137/85/134 138/86/135 143/91/140
f 144/92/141 140/88/137 145/93/142
f 140/88/137 141/89/138 145/93/142
f 141/89/138 142/90/139 145/93/142
f 145/93/142 142/90/139 146/94/143
f 146/94/143 142/90/139 147/95/144
f 142/90/139 143/91/140 147/95/144
f 148/96/145 144/92/141 149/97/146
f 144/92/141 145/93/142 149/97/146
f 145/93/142 146/94/143 149/97/146
f 149/97/146 146/94/143 150/98/147
f 150/98/147 146/94/143 151/99/148
f 146/94/143 147/95/144 151/99/148
f 152/100/149 148/96/145 153/101/150
f 148/96/145 149/97/146 153/101/150
f 149/97/146 150/98/147 153/101/150
f 153/101/150 150/98/147 154/102/151
f 154/102/151 150/98/147 155/103/152
f 150/98/147 151/99/148 155/103/152
f 152/100/149 153/101/150 156/104/153
f 153/101/150 154/102/151 156/104/153
f 154/102/151 155/103/152 157/105/154
f 159/80/155 158/81/156 160/82/157
f 158/81/156 161/83/158 160/82/157
f 161/83/158 162/84/159 160/82/157
f 160/82/157 162/84/159 163/85/160
f 163/85/160 162/84/159 164/86/161
f 162/84/159 165/87/162 164/86/161
f 166/88/163 159/80/155 167/89/164
f 159/80/155 160/82/157 167/89/164
f 160/82/157 163/85/160 167/89/164
f 167/89/164 163/85/160 168/90/165
f 168/90/165 163/85/160 169/91/166
f 163/85/160 164/86/161 169/91/166
f 170/92/167 166/88/163 171/93/168
f 166/88/163 167/89/164 171/93/168
f 167/89/164 168/90/165 171/93/168
f 171/93/168 168/90/165 172/94/169
f 172/94/169 168/90/165 173/95/170
f 168/90/165 169/91/166 173/95/170
f 174/96/171 170/92/167 175/97/172
f 170/92/167 171/93/168 175/97/172
f 171/93/168 172/94/169 175/97/172
f 175/97/172 172/94/169 176/98/173
f 176/98/173 172/94/169 177/99/174
f 172/94/169 173/95/170 177/99/174
f 178/100/175 174/96/171 179/101/176
f 174/96/171 175/97/172 179/101/176
f 175/97/172 176/98/173 179/101/176
f 179/101/176 176/98/173 180/102/177
f 180/102/177 176/98/173 181/103/175
f 176/98/173 177/99/174 181/103/175
f 178/100/175 179/101/176 182/104/178
f 179/101/176 180/102/177 182/104/178
f 180/102/177 181/103/175 183/105/179
f 185/80/180 184/81/181 186/82/182
f 184/81/181 187/83/183 186/82/182
f 187/83/183 188/84/184 186/82/182
f 186/82/182 188/84/184 189/85/185
f 189/85/185 188/84/184 190/86/180
f 188/84/184 191/87/186 190/86/180
f 192/88/187 185/80/180 193/89/188
f 185/80/180 186/82/182 193/89/188
f 186/82/182 189/85/185 193/89/188
f 193/89/188 189/85/185 194/90/189
f 194/90/189 189/85/185 195/91/190
f 189/85/185 190/86/180 195/91/190
f 196/92/191 192/88/187 197/93/192
f 192/88/187 193/89/188 197/93/192
f 193/89/188 194/90/189 197/93/192
f 197/93/192 194/90/189 198/94/193
f 198/94/193 194/90/189 199/95/194
f 194/90/189 195/91/190 199/95/194
f 200/96/195 196/92/191 201/97/196
f 196/92/191 197/93/192 201/97/196
f 197/93/192 198/94/193 201/97/196
f 201/97/196 198/94/193 202/98/197
f 202/98/197 198/94/193 203/99/198
f 198/94/193 199/95/194 203/99/198
f 204/100/199 200/96/195 205/101/200
f 200/96/195 201/97/196 205/101/200
f 201/97/196 202/98/197 205/101/200
f 205/101/200 202/98/197 206/102/201
f 206/102/201 202/98/197 207/103/202
f 202/98/197 203/99/198 207/103/202
f 204/100/199 205/101/200 208/104/203
f 205/101/200 206/102/201 208/104/203
f 206/102/201 207/103/202 209/105/204
f 211/80/205 210/81/206 212/82/207
f 210/81/206 213/83/208 212/82/207
f 213/83/208 214/84/209 212/82/207
f 212/82/207 214/84/209 215/85/210
f 215/85/210 214/84/209 216/86/205
f 214/84/209 217/87/211 216/86/205
f 218/88/212 211/80/205 219/89/213
f 211/80/205 212/82/207 219/89/213
f 212/82/207 215/85/210 219/89/213
f 219/89/213 215/85/210 220/90/214
f 220/90/214 215/85/210 221/91/215
f 215/85/210 216/86/205 221/91/215
f 222/92/216 218/88/212 223/93/217
f 218/88/212 219/89/213 223/93/217
f 219/89/213 220/90/214 223/93/217
f 223/93/217 220/90/214 224/94/218
f 224/94/218 220/90/214 225/95/216
f 220/90/214 221/91/215 225/95/216
f 226/96/219 222/92/216 227/97/220
f 222/92/216 223/93/217 227/97/220
f 223/93/217 224/94/218 227/97/220
f 227/97/220 224/94/218 228/98/221
f 228/98/221 224/94/218 229/99/222
f 224/94/218 225/95/216 229/99/222
f 230/100/223 226/96/219 231/101/224
f 226/96/219 227/97/220 231/101/224
f 227/97/220 228/98/221 231/101/224
f 231/101/224 228/98/221 232/102/225
f 232/102/225 228/98/221 233/103/226
f 228/98/221 229/99/222 233/103/226
f 230/100/223 231/101/224 234/104/227
f 231/101/224 232/102/225 234/104/227
f 232/102/225 233/103/226 235/105/228
f 237/80/229 236/81/230 238/82/231
f 236/81/230 239/83/232 238/82/231
f 239/83/232 240/84/233 238/82/231
f 238/82/231 240/84/233 241/85/234
f 241/85/234 240/84/233 242/86/235
f 240/84/233 243/87/236 242/86/235
f 244/88/237 237/80/229 245/89/238
f 237/80/229 238/82/231 245/89/238
f 238/82/231 241/85/234 245/89/238
f 245/89/238 241/85/234 246/90/239
f 246/90/239 241/85/234 247/91/240
f 241/85/234 242/86/235 247/91/240
f 248/92/241 244/88/237 249/93/242
f 244/88/237 245/89/238 249/93/242
f 245/89/238 246/90/239 249/93/242
f 249/93/242 246/90/239 250/94/243
f 250/94/243 246/90/239 251/95/241
f 246/90/239 247/91/240 251/95/241
f 252/96/244 248/92/241 253/97/245
f 248/92/241 249/93/242 253/97/245
f 249/93/242 250/94/243 253/97/245
f 253/97/245 250/94/243 254/98/246
f 254/98/246 250/94/243 255/99/247
f 250/94/243 251/95/241 255/99/247
f 256/100/248 252/96/244 257/101/249
f 252/96/244 253/97/245 257/101/249
f 253/97/245 254/98/246 257/101/249
f 257/101/249 254/98/246 258/102/250
f 258/102/250 254/98/246 259/103/251
f 254/98/246 255/99/247 259/103/251
f 256/100/248 257/101/249 260/104/252
f 257/101/249 258/102/250 260/104/252
f 258/102/250 259/103/251 261/105/253
f 263/80/254 262/81/255 264/82/256
f 262/81/255 265/83/257 264/82/256
f 265/83/257 266/84/258 264/82/256
f 264/82/256 266/84/258 267/85/259
f 267/85/259 266/84/258 268/86/254
f 266/84/258 269/87/260 268/86/254
f 270/88/261 263/80/254 271/89/262
f 263/80/254 264/82/256 271/89/262
f 264/82/256 267/85/259 271/89/262
f 271/89/262 267/85/259 272/90/263
f 272/90/263 267/85/259 273/91/264
f 267/85/259 268/86/254 273/91/264
f 274/92/265 270/88/261 275/93/266
f 270/88/261 271/89/262 275/93/266
f 271/89/262 272/90/263 275/93/266
f 275/93/266 272/90/263 276/94/267
f 276/94/267 272/90/263 277/95/265
f 272/90/263 273/91/264 277/95/265
f 278/96/268 274/92/265 279/97/269
f 274/92/265 275/93/266 279/97/269
f 275/93/266 276/94/267 279/97/269
f 279/97/269 276/94/267 280/98/270
f 280/98/270 276/94/267 281/99/268
f 276/94/267 277/95/265 281/99/268
f 282/100/271 278/96/268 283/101/272
f 278/96/268 279/97/269 283/101/272
f 279/97/269 280/98/270 283/101/272
f 283/101/272 280/98/270 284/102/273
f 284/102/273 280/98/270 285/103/274
f 280/98/270 281/99/268 285/103/274
f 282/100/271 283/101/272 286/104/275
f 283/101/272 284/102/273 286/104/275
f 284/102/273 285/103/274 287/105/276
o tree.001
v -14.927140 69.370598 38.798515
v -18.624250 76.351372 41.799702
v -14.957600 91.888878 30.499842
v -9.406150 84.524094 24.576164
v -9.569300 100.404022 3.869722
v -17.204479 109.292297 11.797421
v -37.756531 97.486572 3.479363
v -31.451080 89.478653 -3.336637
v -49.277969 76.351913 -3.739606
v -54.172211 85.151711 -0.399416
v -18.647449 77.324547 44.542961
v -19.204370 96.802063 35.345394
v -25.596741 116.516373 20.715881
v -43.926041 104.248444 9.458742
v -57.059891 88.514252 4.490103
v -23.712521 82.411987 48.408634
v -25.851580 100.676453 42.112442
v -34.112110 119.791260 30.136631
v -50.887699 106.679131 18.277592
v -63.144588 92.819550 10.639793
v -24.101620 83.214005 50.764454
v -30.120590 101.546043 48.119312
v -42.798779 121.193733 39.946514
v -57.361568 108.468384 25.718512
v -65.927803 92.909653 16.241972
v -26.641251 85.375679 53.096973
v -33.755878 101.813606 52.462612
v -48.260479 120.319870 46.318291
v -61.930161 108.477440 31.060932
v -69.142563 93.730362 20.263372
v -29.231670 82.619545 58.791122
v -39.428188 99.735886 59.378223
v -55.506859 116.690384 55.097061
v -68.458443 105.901733 38.965191
v -74.841530 92.660568 26.903433
v -30.423941 83.853859 60.629131
v -43.480721 97.873550 64.462349
v -62.258610 111.450966 63.527401
v -73.477341 102.063927 45.835442
v -77.635857 90.762131 31.618542
v -33.889290 81.307251 64.952255
v -46.977791 92.495995 69.806702
v -67.147949 104.128860 70.120224
v -77.904007 95.988754 51.960682
v -81.230507 86.168167 37.013332
v -34.223652 81.341354 66.691261
v -49.510948 88.642036 73.570984
v -71.219963 95.662148 75.941910
v -81.513237 89.904259 56.982021
v -84.901192 83.616829 41.033203
v -35.536461 77.114174 69.477776
v -51.515610 82.089241 76.831154
v -73.242790 86.483665 79.535950
v -83.010933 81.858116 60.439152
v -86.927834 77.342682 44.594433
v -38.067410 79.351906 71.431213
v -52.165581 78.785011 78.650459
v -74.321388 76.771561 82.132919
v -84.073929 72.962494 63.193436
v -87.447693 70.298737 47.213326
v 54.863869 79.504990 24.982334
v 57.489880 86.754837 29.809544
v 42.431850 103.366173 21.572693
v 37.569012 95.370613 14.125822
v 15.348960 109.732597 7.635952
v 20.164000 120.054390 17.006340
v 4.419580 108.416832 36.433884
v 1.357700 98.280296 28.934402
v -5.126240 85.332672 48.267643
v -3.395750 94.668976 53.783062
v 58.665989 90.400520 31.271662
v 44.749069 110.634247 27.456003
v 25.645260 128.976044 27.473751
v 9.082640 115.205437 44.020794
v 0.522140 98.544304 57.890373
v 60.930470 96.168716 37.483383
v 50.100780 114.816940 36.107971
v 31.625740 134.260452 38.569450
v 13.868290 120.744621 53.452583
v 4.553910 103.467781 65.218956
v 63.750721 97.130814 39.353352
v 53.662510 118.432320 43.135693
v 37.966011 137.862045 50.192959
v 19.348539 123.213226 61.785503
v 7.136190 106.859100 69.966331
v 65.511627 99.109337 42.385303
v 57.367352 118.698868 48.139362
v 42.218681 138.516525 57.849697
v 22.820021 124.433746 67.927895
v 9.551390 108.938667 74.471283
v 69.213623 99.821793 48.967274
v 62.307961 118.256119 56.721931
v 48.324200 137.140182 68.615623
v 28.086929 124.066277 77.484116
v 14.615620 108.373329 81.943993
v 70.902283 101.235291 51.983944
v 66.069710 117.628929 63.483303
v 54.391270 134.183960 79.137245
v 33.097309 122.122604 85.448990
v 17.895559 108.382248 87.255623
v 74.763687 98.560265 56.999733
v 70.591652 113.648521 70.304710
v 59.630058 128.869339 87.845619
v 37.940250 117.860954 93.225021
v 21.990561 105.864120 94.398262
v 76.527367 98.660034 59.543274
v 73.936996 110.421310 75.434280
v 64.606293 122.304947 95.884399
v 41.913570 113.698044 100.347916
v 25.371161 103.055824 98.329590
v 79.278542 95.223671 64.058464
v 77.125648 105.026566 80.925575
v 68.466179 114.443161 101.658905
v 45.608421 107.105934 105.854179
v 28.751350 98.130020 103.352463
v 80.180634 96.919830 64.377739
v 79.110077 101.993324 83.961449
v 71.889809 105.739365 106.494003
v 49.200069 98.896851 110.382599
v 32.018959 92.021965 107.238556
v 52.332821 91.778221 -55.854118
v 59.086170 99.258995 -59.499249
v 47.474758 114.720879 -41.269829
v 39.614319 104.594917 -39.232899
v 28.496799 117.955513 -13.205029
v 38.359531 129.571548 -15.659100
v 57.557461 115.834091 3.466141
v 49.890911 104.997658 4.684982
v 69.295303 92.496971 16.924313
v 75.977982 100.786034 14.040242
v 61.530231 106.136963 -58.252857
v 54.379951 123.190437 -42.336426
v 49.462952 139.985489 -18.477741
v 65.396141 123.418221 0.669081
v 79.477989 107.360497 13.984423
v 69.421143 111.042572 -61.535198
v 64.388603 128.997574 -45.755821
v 61.490299 147.069122 -21.616032
v 75.355553 130.074097 -1.864950
v 87.752441 111.954773 10.101201
v 73.804527 115.721123 -61.865578
v 72.930168 133.791046 -47.943142
v 74.247581 152.712189 -24.977411
v 84.284828 135.052124 -4.092110
v 92.569229 116.010406 8.893611
v 78.099342 116.681175 -64.730255
v 79.456863 136.336319 -49.552471
v 82.865097 154.896820 -27.271631
v 90.999687 137.641220 -5.734130
v 97.248848 119.229218 8.161112
v 86.624962 118.777435 -66.947647
v 90.074608 138.019989 -52.251213
v 95.414902 155.960342 -30.632912
v 101.680267 138.854706 -8.917480
v 105.933647 120.615540 5.190901
v 92.052452 120.847679 -67.896111
v 98.975487 138.269760 -54.966061
v 108.034447 155.595261 -34.021473
v 110.913544 139.397018 -11.398050
v 111.482437 121.962738 3.543141
v 99.803123 119.518890 -70.621727
v 108.656517 136.483810 -57.566853
v 119.296547 152.756363 -37.048752
v 120.801353 137.766403 -13.860950
v 120.225571 122.226891 2.226411
v 104.597740 119.330879 -72.066727
v 116.776428 134.532822 -59.555481
v 130.221817 148.648041 -39.983273
v 128.757217 135.187027 -16.373699
v 125.733131 122.000191 0.839371
v 112.194183 117.327133 -73.071297
v 124.383949 129.825287 -61.970631
v 139.200363 142.807541 -42.393261
v 136.754379 130.803619 -18.464050
v 132.439041 118.716110 -1.286239
v 114.571037 118.336426 -73.470474
v 129.438644 127.225403 -63.181183
v 147.519806 135.949234 -44.621250
v 144.340820 125.021896 -20.661449
v 139.647308 114.936211 -2.813138
v -30.776239 103.635277 -42.220947
v -31.641930 113.155357 -48.360767
v -12.871670 123.060188 -39.329147
v -13.042440 112.117279 -32.440956
v 10.192820 119.870079 -24.551590
v 8.940960 131.074905 -32.997463
v 22.354771 118.693626 -49.723259
v 24.005350 109.010674 -42.529167
v 31.696329 98.208595 -59.508018
v 29.168449 106.182816 -65.630424
v -30.508961 121.393814 -53.161808
v -14.596340 131.708420 -47.156021
v 7.545850 141.383087 -42.547112
v 22.034760 127.016731 -56.114063
v 29.085859 112.070946 -69.089615
v -33.335602 127.363739 -61.690212
v -15.292520 139.365021 -56.367283
v 6.074910 149.026184 -53.031933
v 19.898199 133.439377 -65.116020
v 28.656019 118.592293 -76.014648
v -33.855862 132.725571 -68.438011
v -17.448450 144.752533 -65.736526
v 4.537650 155.590622 -64.249435
v 19.000099 138.827545 -72.926109
v 28.636101 123.068726 -80.561996
v -34.032459 136.232422 -73.794495
v -18.164490 148.004181 -72.345161
v 3.523890 158.704422 -71.954933
v 18.642780 142.039871 -78.803116
v 27.570471 125.530884 -84.815216
v -34.625450 139.725601 -83.051254
v -19.063021 151.253174 -82.769791
v 2.081520 161.521103 -83.420929
v 17.171789 144.692413 -88.513931
v 26.813210 128.546524 -92.801361
v -36.051311 141.424744 -90.672409
v -20.508860 152.934021 -92.583229
v 0.652410 163.180481 -95.139862
v 16.202950 146.501175 -96.817871
v 26.899450 130.960556 -97.938354
v -36.854012 141.904221 -99.642654
v -21.633650 152.799973 -102.551453
v -0.601360 162.584152 -106.002365
v 15.835940 146.921021 -106.185371
v 25.399000 130.965485 -105.553841
v -37.000992 142.185593 -107.074844
v -21.970810 152.302109 -111.891663
v -1.812300 160.882294 -116.778366
v 15.136050 146.405365 -114.044006
v 25.230480 131.651947 -110.481270
v -38.464050 139.717041 -114.810974
v -22.748310 149.633881 -120.700218
v -2.813630 157.456604 -126.140442
v 14.198860 143.848557 -122.125961
v 24.548149 130.102722 -117.350235
v -38.426609 139.470154 -118.982544
v -23.431360 147.186279 -127.175751
v -3.751270 153.101089 -135.139816
v 13.705470 140.569931 -130.433212
v 25.409719 128.712799 -124.989761
v 27.114531 108.315781 55.507973
v 25.166340 119.308914 58.248821
v 19.620850 132.261124 38.148849
v 21.758539 120.633430 32.487324
v 11.112850 133.620422 6.603770
v 8.560270 146.369232 14.712298
v -20.093031 138.492004 17.094290
v -18.283300 126.784042 8.942261
v -42.207432 118.680496 15.235891
v -44.194618 130.880066 20.498360
v 25.083639 124.810089 62.704014
v 18.320070 140.660370 45.045700
v 5.781880 158.324097 23.934759
v -22.282049 149.418381 24.729668
v -44.975319 139.167847 28.396709
v 23.150240 133.189240 68.592583
v 16.092091 149.128983 53.350708
v 2.880410 167.707550 34.195560
v -24.822359 158.749954 33.930840
v -47.023029 148.149963 36.567947
v 23.196260 136.507751 74.254173
v 14.156910 155.883453 60.708958
v -0.165890 176.133408 45.249489
v -27.352320 166.837418 43.323029
v -49.053711 155.920609 43.793510
v 22.448780 140.303986 78.100464
v 12.707840 160.091476 66.356682
v -2.220640 180.549377 52.937534
v -28.846930 171.029388 50.352367
v -49.944740 159.819778 50.005219
v 20.448750 145.386505 85.645599
v 10.528790 164.358673 76.227798
v -5.254480 185.364975 64.556816
v -31.502480 176.061142 61.115208
v -52.089100 164.832794 59.834877
v 19.970119 147.698563 90.727989
v 8.595770 167.731720 84.467567
v -8.344930 189.114990 76.572906
v -34.165379 180.169952 71.563858
v -54.624870 169.995560 68.116745
v 18.437380 149.686493 98.601715
v 6.232650 169.770050 94.002487
v -11.222310 190.559570 88.041504
v -36.477020 181.616547 82.450348
v -56.884739 172.465118 78.081894
v 16.933241 152.618744 103.178513
v 4.694150 170.354050 102.042145
v -14.085420 190.942307 99.620491
v -38.910290 182.592072 92.779121
v -58.562778 173.519012 87.111153
v 15.411880 152.874725 110.632317
v 2.708870 169.757202 110.885124
v -16.590670 189.432449 110.118858
v -41.101768 181.606339 102.826859
v -60.937031 173.928970 96.667046
v 15.506310 154.217667 111.906555
v 1.595280 169.486008 116.182152
v -19.003889 186.974564 120.478645
v -44.027939 179.938934 114.460213
v -63.796879 172.507492 108.961288
v 83.832642 124.897476 -3.286420
v 85.021507 137.705063 1.422560
v 61.107929 144.949509 3.952289
v 56.566650 132.220093 -1.220300
v 27.741850 138.619263 4.291910
v 32.141731 152.181931 10.237248
v 27.249300 140.633865 37.958439
v 24.295971 128.100632 32.930698
v 25.494080 117.915001 57.299263
v 27.961281 129.180618 61.344189
v 90.041290 147.377701 5.548669
v 64.515244 156.901474 9.617469
v 37.109772 165.187057 16.977257
v 31.863600 150.954208 42.785667
v 29.677799 137.814789 64.658539
v 93.955421 157.587677 11.574718
v 70.441383 166.995102 16.221867
v 42.634331 176.049927 24.495386
v 36.380459 161.042694 49.227379
v 32.957401 147.330521 70.142273
v 97.380493 166.214371 17.194746
v 75.267464 176.371643 23.086847
v 48.604771 186.239807 32.621273
v 40.410431 169.786102 55.456928
v 36.592049 154.081696 74.307953
v 99.790909 172.030548 21.474436
v 78.438683 182.275085 28.118456
v 52.799622 192.064529 38.323433
v 44.004089 174.989304 59.940639
v 38.846291 159.106461 77.821312
v 105.577492 178.795639 28.495956
v 84.558144 189.285782 36.007626
v 59.243801 199.293427 47.061337
v 49.551529 181.873291 67.536713
v 42.914589 166.051804 84.532867
v 110.022758 184.636551 34.956455
v 90.258003 195.395157 43.792336
v 65.993896 205.745560 56.190025
v 53.985439 187.930923 74.771347
v 47.158821 170.516632 89.288414
v 114.914261 189.786514 42.711697
v 95.689377 200.435760 52.312126
v 72.651497 210.173111 65.150116
v 59.617390 192.439789 82.662193
v 51.769428 175.112762 96.138512
v 120.412697 193.050308 49.090755
v 101.470268 204.224899 60.389793
v 79.499283 213.783157 74.349854
v 64.930367 195.793518 89.715569
v 55.411201 178.341080 101.186203
v 125.642952 195.819672 56.751614
v 107.567833 206.361984 68.480988
v 85.966217 215.605179 83.042664
v 70.216927 198.197372 97.572693
v 58.779491 181.935501 108.711372
v 128.230530 197.662659 60.616196
v 111.745483 208.102493 74.996094
v 92.493080 216.654984 91.833565
v 76.195633 199.963669 106.373772
v 65.683029 182.869766 115.828796
v 19.855810 133.421188 -64.827797
v 23.826180 146.323853 -68.948494
v 28.113300 150.965317 -45.407261
v 23.626881 137.656982 -41.351822
v 30.306669 141.921463 -13.546511
v 35.382420 155.725510 -17.016352
v 62.333530 145.642136 -14.532882
v 58.019909 132.889618 -11.889251
v 82.022110 125.125076 -10.207669
v 85.347023 136.438324 -14.612321
v 28.442110 158.753845 -70.411964
v 33.236629 163.783707 -48.534340
v 41.152561 169.159775 -20.881893
v 66.725517 156.954010 -17.067402
v 88.449532 145.777313 -16.163551
v 33.684570 169.465576 -75.938599
v 39.325130 175.341385 -52.097393
v 47.692570 180.790436 -25.134493
v 72.393089 167.801788 -20.323544
v 93.365540 156.016708 -18.185352
v 39.381031 179.720520 -79.085556
v 45.794842 186.144684 -55.832794
v 54.833099 191.942352 -29.727745
v 77.788254 177.053329 -24.039173
v 97.171288 163.554810 -21.131992
v 43.655510 186.579880 -80.637688
v 50.338680 192.641693 -58.978985
v 59.930679 198.565247 -32.963535
v 81.891861 183.088058 -26.426243
v 100.328346 169.000580 -22.936373
v 50.492298 195.019684 -85.467712
v 57.823151 201.360535 -63.478817
v 67.871452 207.207657 -37.962124
v 88.871094 191.323517 -30.317585
v 106.622276 177.213852 -24.965233
v 57.375881 202.698151 -89.581848
v 65.579819 209.414658 -67.839745
v 76.263237 215.268082 -43.217674
v 95.270844 198.069000 -34.641857
v 111.521118 183.257141 -27.447514
v 65.333527 209.971176 -92.619492
v 73.461029 215.723373 -73.077744
v 84.681122 221.568085 -48.454414
v 102.700729 204.191010 -38.966557
v 117.932411 189.019730 -31.488754
v 72.851929 215.921646 -96.731178
v 81.587578 221.563263 -77.829277
v 93.415443 227.271072 -53.875366
v 109.549767 209.250107 -43.104954
v 123.426483 193.973862 -33.652164
v 80.502602 220.500641 -101.532753
v 89.668480 225.980148 -82.734055
v 101.853683 231.398285 -59.095329
v 117.348328 213.846619 -46.746414
v 130.433762 198.682053 -36.565327
v 85.509178 224.006195 -103.236198
v 96.526848 229.717682 -85.697212
v 110.488426 234.953094 -64.430305
v 125.553543 217.405502 -52.586575
v 137.792328 201.769958 -43.625416
v -37.598652 138.160187 8.157820
v -42.463390 151.597488 6.178198
v -16.922991 156.490768 -3.430622
v -14.225030 142.163773 -0.428921
v 13.690100 146.690781 -11.911891
v 9.859090 161.233704 -15.137742
v 8.411440 153.919373 -44.158672
v 12.714590 140.282562 -41.666943
v 8.775120 134.141357 -66.595230
v 6.576450 147.476425 -69.061005
v -45.109871 164.392792 3.486608
v -21.585060 169.753479 -6.256603
v 5.583160 175.561234 -18.772293
v 5.149800 166.813568 -47.111332
v 4.518920 159.197525 -71.488747
v -48.376862 176.827042 0.041937
v -25.694450 182.328018 -9.974343
v 0.827450 188.360779 -22.864763
v 1.460310 179.143158 -50.800034
v 0.315190 170.695694 -74.404747
v -51.621941 188.225998 -3.460334
v -29.723190 194.309677 -13.979124
v -4.336710 200.879654 -27.334526
v -3.032470 190.276108 -54.347336
v -2.781200 180.835876 -77.351326
v -54.934860 195.368210 -5.638595
v -33.192589 201.731018 -16.652905
v -8.014720 208.583389 -30.536106
v -6.042170 197.524628 -56.988655
v -4.518320 187.938751 -79.704819
v -59.506989 205.688339 -9.890595
v -38.425480 212.104538 -21.239555
v -13.765650 219.088181 -35.554005
v -10.379390 207.917389 -61.682396
v -9.734730 197.386292 -83.398422
v -63.525539 215.279663 -14.246356
v -43.060459 222.143753 -26.198606
v -19.863649 229.246826 -40.880730
v -15.294970 217.264221 -66.187508
v -13.525820 205.964035 -87.143318
v -69.465286 223.603180 -18.564096
v -48.602829 230.909576 -31.237318
v -26.049770 237.940567 -46.275238
v -20.940861 225.708313 -71.000885
v -18.480440 214.253174 -91.488976
v -74.221428 231.596268 -23.129236
v -54.458679 238.965332 -36.225830
v -32.515671 246.281311 -51.904808
v -25.996031 233.692886 -75.953094
v -21.305019 222.392273 -96.202415
v -79.680023 238.752365 -27.877438
v -59.954350 246.285889 -41.530788
v -38.878349 253.264999 -57.417297
v -31.281590 240.918213 -81.177956
v -27.751820 228.602631 -100.201012
v -80.752068 244.029846 -31.270948
v -64.038109 251.974457 -45.827530
v -45.459839 259.906586 -63.100941
v -39.294281 247.864304 -86.684158
v -33.753300 237.733582 -107.036964
vn 0.8794 0.1645 0.4467
vn 0.7492 0.2061 0.6294
vn 0.8253 0.3362 0.4537
vn 0.7854 0.3559 0.5065
vn 0.5185 0.8027 -0.2945
vn 0.5013 0.8233 -0.2664
vn -0.1522 0.5643 -0.8114
vn -0.2760 0.5885 -0.7599
vn -0.2914 0.4200 -0.8595
vn -0.3082 0.5160 -0.7992
vn 0.8414 0.2350 0.4867
vn 0.8379 0.3679 0.4033
vn 0.3314 0.9400 -0.0810
vn -0.3000 0.6918 -0.6568
vn -0.4753 0.6248 -0.6195
vn 0.8171 0.3276 0.4744
vn 0.7241 0.4471 0.5252
vn 0.2223 0.9749 0.0097
vn -0.3785 0.7575 -0.5319
vn -0.5387 0.6679 -0.5135
vn 0.8036 0.3662 0.4692
vn 0.7404 0.4827 0.4678
vn 0.1084 0.9846 0.1371
vn -0.4926 0.7608 -0.4225
vn -0.6474 0.6325 -0.4252
vn 0.6798 0.3817 0.6263
vn 0.6292 0.4924 0.6014
vn -0.0270 0.9542 0.2981
vn -0.5575 0.7544 -0.3466
vn -0.6502 0.6467 -0.3988
vn 0.6936 0.5255 0.4928
vn 0.5689 0.5055 0.6487
vn -0.1229 0.9050 0.4074
vn -0.6551 0.7290 -0.1984
vn -0.7544 0.6075 -0.2487
vn 0.6289 0.5144 0.5830
vn 0.5326 0.5589 0.6356
vn -0.2505 0.7935 0.5547
vn -0.7554 0.6521 -0.0639
vn -0.8487 0.5137 -0.1259
vn 0.5302 0.5895 0.6094
vn 0.4304 0.4543 0.7800
vn -0.3216 0.6919 0.6464
vn -0.8273 0.5605 0.0372
vn -0.8308 0.5500 -0.0848
vn 0.4711 0.5610 0.6807
vn 0.3826 0.5168 0.7658
vn -0.4083 0.4901 0.7701
vn -0.8587 0.4932 0.1396
vn -0.8936 0.4437 0.0682
vn 0.2752 0.6950 0.6643
vn 0.3166 0.3579 0.8785
vn -0.4537 0.3613 0.8146
vn -0.9202 0.2753 0.2783
vn -0.9559 0.2218 0.1926
vn -0.6275 0.3151 -0.7120
vn 0.0926 0.5484 0.8311
vn -0.4905 0.2555 0.8332
vn -0.9297 0.1840 0.3191
vn -0.9594 0.1258 0.2523
vn 0.6739 0.2698 -0.6878
vn 0.7374 0.2689 -0.6196
vn 0.6051 0.3782 -0.7006
vn 0.6382 0.4010 -0.6572
vn -0.1924 0.7227 -0.6639
vn -0.1503 0.7883 -0.5966
vn -0.8456 0.5174 -0.1314
vn -0.8743 0.4762 -0.0940
vn -0.9365 0.3500 -0.0235
vn -0.8622 0.4983 0.0915
vn 0.6937 0.3362 -0.6371
vn 0.5965 0.4291 -0.6783
vn -0.0843 0.8878 -0.4525
vn -0.7640 0.6449 0.0191
vn -0.8007 0.5613 0.2095
vn 0.6790 0.4014 -0.6147
vn 0.6507 0.5047 -0.5673
vn -0.0039 0.9543 -0.2988
vn -0.7090 0.6953 0.1182
vn -0.7732 0.5993 0.2073
vn 0.6416 0.4443 -0.6252
vn 0.6234 0.5399 -0.5656
vn 0.0459 0.9840 -0.1723
vn -0.6448 0.7424 0.1821
vn -0.7255 0.6622 0.1873
vn 0.7510 0.4804 -0.4530
vn 0.6834 0.5770 -0.4474
vn 0.1391 0.9902 -0.0106
vn -0.5840 0.7699 0.2573
vn -0.6312 0.6841 0.3655
vn 0.7380 0.5266 -0.4220
vn 0.7332 0.5876 -0.3423
vn 0.2092 0.9711 0.1146
vn -0.4874 0.7622 0.4260
vn -0.5565 0.6668 0.4957
vn 0.7705 0.5366 -0.3441
vn 0.7404 0.6061 -0.2905
vn 0.2990 0.9108 0.2848
vn -0.4195 0.7437 0.5205
vn -0.4879 0.6736 0.5552
vn 0.7713 0.5729 -0.2774
vn 0.8047 0.5707 -0.1634
vn 0.3584 0.8526 0.3804
vn -0.3397 0.7119 0.6147
vn -0.4164 0.6176 0.6672
vn 0.8210 0.5402 -0.1850
vn 0.8088 0.5775 -0.1113
vn 0.4547 0.7224 0.5209
vn -0.2714 0.6288 0.7287
vn -0.3633 0.4909 0.7919
vn 0.5761 0.8000 -0.1675
vn 0.8667 0.4988 -0.0022
vn 0.5012 0.6157 0.6080
vn -0.1850 0.5042 0.8435
vn -0.3039 0.4121 0.8590
vn -0.7738 0.6334 -0.0032
vn 0.6684 0.7420 0.0519
vn 0.5155 0.5316 0.6720
vn -0.1305 0.4257 0.8954
vn -0.2160 0.3631 0.9063
vn -0.5784 0.3746 -0.7246
vn -0.5516 0.3476 -0.7582
vn -0.6405 0.4340 -0.6336
vn -0.5820 0.4611 -0.6698
vn -0.7149 0.6802 0.1620
vn -0.6514 0.7449 0.1443
vn -0.2674 0.4843 0.8330
vn -0.2934 0.4424 0.8475
vn -0.1370 0.4214 0.8965
vn -0.1867 0.4231 0.8866
vn -0.5142 0.4534 -0.7280
vn -0.5833 0.5085 -0.6334
vn -0.5174 0.8469 0.1228
vn -0.2474 0.5414 0.8035
vn -0.1267 0.5094 0.8512
vn -0.4687 0.5093 -0.7217
vn -0.4950 0.5829 -0.6443
vn -0.4049 0.9099 0.0905
vn -0.1039 0.6252 0.7735
vn -0.0022 0.5551 0.8318
vn -0.4386 0.5532 -0.7083
vn -0.4405 0.6259 -0.6436
vn -0.2828 0.9576 0.0549
vn -0.0930 0.6393 0.7633
vn -0.0801 0.5585 0.8256
vn -0.3252 0.6055 -0.7264
vn -0.3472 0.6732 -0.6529
vn -0.1085 0.9941 0.0091
vn 0.0053 0.6961 0.7179
vn 0.0922 0.6266 0.7739
vn -0.2479 0.6393 -0.7279
vn -0.2292 0.7055 -0.6706
vn -0.0036 0.9999 -0.0140
vn 0.1593 0.7257 0.6693
vn 0.1936 0.6478 0.7368
vn -0.1388 0.6527 -0.7448
vn -0.1472 0.7203 -0.6779
vn 0.1633 0.9847 -0.0614
vn 0.2089 0.7342 0.6460
vn 0.2075 0.6785 0.7047
vn -0.0597 0.6667 -0.7430
vn -0.0113 0.7127 -0.7014
vn 0.2992 0.9491 -0.0979
vn 0.3273 0.7417 0.5855
vn 0.2886 0.7187 0.6326
vn 0.0554 0.6455 -0.7618
vn 0.0744 0.7047 -0.7056
vn 0.4526 0.8816 -0.1337
vn 0.4342 0.7308 0.5267
vn 0.4486 0.6875 0.5711
vn -0.0133 0.7641 -0.6449
vn 0.1956 0.6599 -0.7254
vn 0.5580 0.8144 -0.1595
vn 0.5740 0.6631 0.4804
vn 0.5663 0.6356 0.5248
vn -0.2031 0.9377 -0.2818
vn 0.1280 0.7752 -0.6186
vn 0.6411 0.7476 -0.1734
vn 0.6179 0.6499 0.4425
vn 0.5957 0.6664 0.4484
vn -0.5990 0.4973 0.6277
vn -0.6281 0.4791 0.6132
vn -0.5057 0.5151 0.6921
vn -0.5356 0.5422 0.6474
vn 0.2620 0.6566 0.7072
vn 0.2664 0.6650 0.6977
vn 0.8877 0.3769 0.2643
vn 0.8655 0.4516 0.2165
vn 0.9172 0.3942 0.0585
vn 0.9419 0.3032 0.1443
vn -0.5965 0.5897 0.5445
vn -0.5049 0.5954 0.6250
vn 0.2433 0.7944 0.5565
vn 0.8840 0.3986 0.2443
vn 0.9260 0.3506 0.1398
vn -0.5837 0.6523 0.4835
vn -0.5028 0.6845 0.5279
vn 0.2449 0.8482 0.4696
vn 0.8547 0.4866 0.1809
vn 0.8896 0.4124 0.1962
vn -0.5791 0.7043 0.4105
vn -0.4989 0.7360 0.4576
vn 0.2243 0.8981 0.3782
vn 0.8375 0.5027 0.2143
vn 0.8749 0.4666 0.1298
vn -0.5807 0.7581 0.2968
vn -0.5016 0.7900 0.3526
vn 0.2017 0.9534 0.2242
vn 0.8212 0.5637 0.0892
vn 0.8596 0.5108 -0.0147
vn -0.5728 0.7923 0.2104
vn -0.5016 0.8317 0.2380
vn 0.1944 0.9726 0.1275
vn 0.8022 0.5967 0.0203
vn 0.8338 0.5488 0.0594
vn -0.5729 0.8154 0.0835
vn -0.4997 0.8558 0.1335
vn 0.1702 0.9853 -0.0118
vn 0.7776 0.6282 0.0250
vn 0.8190 0.5728 -0.0348
vn -0.5661 0.8241 -0.0188
vn -0.5022 0.8647 -0.0071
vn 0.1437 0.9798 -0.1394
vn 0.7631 0.6360 -0.1149
vn 0.8202 0.5552 -0.1378
vn -0.5656 0.8110 -0.1498
vn -0.4967 0.8602 -0.1152
vn 0.1263 0.9443 -0.3038
vn 0.7430 0.6439 -0.1825
vn 0.8003 0.5662 -0.1974
vn -0.5406 0.8177 -0.1979
vn -0.4954 0.8317 -0.2506
vn 0.1165 0.9070 -0.4047
vn 0.7178 0.6264 -0.3040
vn 0.7615 0.6062 -0.2294
vn -0.4815 0.8510 -0.2094
vn -0.4660 0.8416 -0.2730
vn 0.0909 0.8630 -0.4969
vn 0.6787 0.6708 -0.2991
vn 0.6570 0.7178 -0.2305
vn 0.9618 0.2598 -0.0864
vn 0.9594 0.2813 -0.0176
vn 0.9405 0.3040 -0.1515
vn 0.9317 0.3502 -0.0964
vn 0.4509 0.6010 -0.6599
vn 0.4428 0.6118 -0.6555
vn -0.2656 0.5183 -0.8129
vn -0.3251 0.5917 -0.7377
vn -0.3813 0.4866 -0.7860
vn -0.3492 0.5431 -0.7636
vn 0.9452 0.3188 -0.0700
vn 0.9273 0.3445 -0.1468
vn 0.4178 0.7104 -0.5664
vn -0.2955 0.6083 -0.7367
vn -0.4128 0.6337 -0.6543
vn 0.9276 0.3681 -0.0639
vn 0.9053 0.4111 -0.1069
vn 0.3971 0.7758 -0.4904
vn -0.3113 0.6713 -0.6726
vn -0.3896 0.6484 -0.6541
vn 0.9142 0.3984 -0.0737
vn 0.8902 0.4433 -0.1045
vn 0.3695 0.8388 -0.3999
vn -0.3061 0.7372 -0.6023
vn -0.3970 0.7382 -0.5454
vn 0.8889 0.4580 -0.0119
vn 0.8671 0.4944 -0.0608
vn 0.3368 0.8928 -0.2990
vn -0.3296 0.8123 -0.4812
vn -0.4211 0.7955 -0.4358
vn 0.8667 0.4987 0.0058
vn 0.8415 0.5403 -0.0034
vn 0.3180 0.9213 -0.2236
vn -0.3386 0.8438 -0.4164
vn -0.3904 0.8122 -0.4336
vn 0.8396 0.5394 0.0641
vn 0.8194 0.5726 0.0280
vn 0.2800 0.9565 -0.0816
vn -0.3270 0.8855 -0.3301
vn -0.3704 0.8779 -0.3035
vn 0.8130 0.5762 0.0837
vn 0.7861 0.6078 0.1123
vn 0.2496 0.9683 0.0098
vn -0.3374 0.9252 -0.1737
vn -0.3776 0.9119 -0.1611
vn 0.7803 0.6072 0.1499
vn 0.7606 0.6327 0.1456
vn 0.2164 0.9655 0.1447
vn -0.3507 0.9338 -0.0715
vn -0.3871 0.9208 -0.0485
vn 0.7233 0.6890 -0.0454
vn 0.7273 0.6476 0.2270
vn 0.1967 0.9544 0.2247
vn -0.3501 0.9361 0.0346
vn -0.3671 0.9297 0.0301
vn 0.4541 0.7573 -0.4694
vn 0.6834 0.7277 0.0585
vn 0.1550 0.9301 0.3330
vn -0.3424 0.9336 0.1057
vn -0.3930 0.9061 0.1564
vn 0.0659 0.4389 -0.8961
vn 0.1036 0.4273 -0.8982
vn -0.0130 0.4338 -0.9009
vn 0.0300 0.4759 -0.8790
vn -0.6428 0.5086 -0.5728
vn -0.6262 0.5557 -0.5469
vn -0.9471 0.3100 0.0827
vn -0.9444 0.3099 0.1102
vn -0.9450 0.2515 0.2089
vn -0.9446 0.2842 0.1640
vn 0.0807 0.5221 -0.8491
vn -0.0033 0.5049 -0.8632
vn -0.5994 0.6321 -0.4911
vn -0.9256 0.3698 0.0800
vn -0.9355 0.3347 0.1134
vn 0.0878 0.5835 -0.8074
vn 0.0201 0.5870 -0.8094
vn -0.5640 0.6905 -0.4528
vn -0.9104 0.4071 0.0743
vn -0.9011 0.4083 0.1457
vn 0.0902 0.6286 -0.7725
vn 0.0277 0.6325 -0.7740
vn -0.5199 0.7567 -0.3962
vn -0.8766 0.4682 0.1115
vn -0.8715 0.4546 0.1842
vn 0.1193 0.6969 -0.7072
vn 0.0501 0.6941 -0.7181
vn -0.4756 0.8158 -0.3289
vn -0.8467 0.5148 0.1345
vn -0.8590 0.4871 0.1577
vn 0.1382 0.7456 -0.6519
vn 0.0819 0.7542 -0.6515
vn -0.4421 0.8478 -0.2928
vn -0.8283 0.5453 0.1290
vn -0.8221 0.5353 0.1937
vn 0.1686 0.7958 -0.5816
vn 0.1042 0.7964 -0.5957
vn -0.3701 0.9050 -0.2098
vn -0.7864 0.5910 0.1796
vn -0.7723 0.5700 0.2805
vn 0.1993 0.8350 -0.5128
vn 0.1443 0.8460 -0.5132
vn -0.3175 0.9383 -0.1373
vn -0.7328 0.6389 0.2341
vn -0.7503 0.5983 0.2813
vn 0.2437 0.8697 -0.4292
vn 0.1800 0.8803 -0.4390
vn -0.2564 0.9649 -0.0574
vn -0.6953 0.6702 0.2597
vn -0.7344 0.6336 0.2434
vn 0.2317 0.8869 -0.3996
vn 0.2188 0.9066 -0.3608
vn -0.2034 0.9791 0.0041
vn -0.6526 0.7110 0.2619
vn -0.6481 0.6820 0.3389
vn 0.2309 0.9085 -0.3484
vn 0.2054 0.9193 -0.3358
vn -0.1268 0.9880 0.0878
vn -0.5626 0.7400 0.3685
vn -0.4511 0.6884 0.5681
vn -0.9081 0.4153 0.0547
vn -0.9096 0.4152 0.0170
vn -0.9096 0.3999 0.1129
vn -0.8911 0.4482 0.0708
vn -0.5562 0.4439 0.7026
vn -0.5529 0.4542 0.6986
vn 0.0537 0.2665 0.9623
vn 0.0599 0.3057 0.9503
vn 0.1494 0.3440 0.9270
vn 0.1366 0.2810 0.9499
vn -0.8664 0.4969 0.0492
vn -0.8807 0.4603 0.1118
vn -0.5184 0.5311 0.6702
vn 0.0483 0.2657 0.9629
vn 0.0951 0.2574 0.9616
vn -0.8289 0.5581 0.0387
vn -0.8353 0.5410 0.0976
vn -0.4792 0.5967 0.6436
vn 0.0491 0.3293 0.9429
vn 0.1096 0.3413 0.9335
vn -0.7987 0.6002 0.0418
vn -0.8017 0.5905 0.0927
vn -0.4436 0.6429 0.6245
vn 0.0652 0.3798 0.9228
vn 0.1175 0.3712 0.9211
vn -0.7429 0.6688 0.0280
vn -0.7548 0.6509 0.0811
vn -0.3973 0.7024 0.5906
vn 0.0638 0.3950 0.9165
vn 0.0738 0.3729 0.9250
vn -0.6905 0.7232 0.0112
vn -0.6989 0.7125 0.0625
vn -0.3494 0.7520 0.5589
vn 0.0619 0.4487 0.8915
vn 0.0510 0.4447 0.8942
vn -0.6293 0.7771 -0.0038
vn -0.6444 0.7633 0.0456
vn -0.2884 0.8006 0.5252
vn 0.0773 0.5110 0.8561
vn 0.0912 0.5265 0.8453
vn -0.5719 0.8203 -0.0070
vn -0.5755 0.8175 0.0247
vn -0.2379 0.8385 0.4902
vn 0.1111 0.5544 0.8248
vn 0.0886 0.5555 0.8268
vn -0.4919 0.8699 -0.0353
vn -0.5143 0.8575 0.0085
vn -0.1882 0.8720 0.4519
vn 0.0812 0.5706 0.8172
vn 0.0356 0.5778 0.8154
vn -0.4705 0.8822 -0.0204
vn -0.4508 0.8925 -0.0122
vn -0.1164 0.9075 0.4035
vn 0.1318 0.6371 0.7594
vn 0.2315 0.6706 0.7048
vn -0.4162 0.9085 -0.0391
vn -0.4315 0.9021 0.0031
vn -0.0401 0.9347 0.3531
vn 0.2680 0.6940 0.6682
vn 0.4433 0.7268 0.5246
vn 0.2494 0.3280 0.9111
vn 0.2157 0.3353 0.9171
vn 0.2971 0.3093 0.9034
vn 0.2556 0.3552 0.8992
vn 0.7813 0.3967 0.4819
vn 0.7909 0.3838 0.4767
vn 0.9546 0.2623 -0.1411
vn 0.9065 0.3720 -0.1996
vn 0.9277 0.2881 -0.2374
vn 0.9598 0.2356 -0.1524
vn 0.2566 0.3779 0.8896
vn 0.2970 0.3538 0.8869
vn 0.7691 0.4382 0.4653
vn 0.9571 0.2658 -0.1152
vn 0.9397 0.3039 -0.1566
vn 0.2600 0.4230 0.8680
vn 0.2936 0.4072 0.8648
vn 0.7450 0.4953 0.4469
vn 0.9320 0.3384 -0.1299
vn 0.9151 0.3611 -0.1796
vn 0.2600 0.4655 0.8460
vn 0.2946 0.4468 0.8448
vn 0.7288 0.5356 0.4265
vn 0.9223 0.3655 -0.1253
vn 0.9304 0.3436 -0.1276
vn 0.2479 0.5207 0.8169
vn 0.2839 0.4995 0.8185
vn 0.7030 0.5805 0.4108
vn 0.9225 0.3727 -0.0999
vn 0.9064 0.3990 -0.1385
vn 0.2466 0.5572 0.7929
vn 0.2745 0.5453 0.7920
vn 0.6732 0.6249 0.3954
vn 0.8915 0.4359 -0.1230
vn 0.8711 0.4529 -0.1899
vn 0.2248 0.6147 0.7561
vn 0.2680 0.5868 0.7641
vn 0.6363 0.6818 0.3609
vn 0.8686 0.4782 -0.1300
vn 0.8536 0.4872 -0.1843
vn 0.2091 0.6548 0.7263
vn 0.2432 0.6449 0.7245
vn 0.6124 0.7133 0.3408
vn 0.8422 0.5217 -0.1361
vn 0.8673 0.4808 -0.1288
vn 0.1978 0.6921 0.6942
vn 0.2344 0.6775 0.6972
vn 0.5741 0.7547 0.3176
vn 0.8435 0.5295 -0.0897
vn 0.8141 0.5609 -0.1505
vn 0.2338 0.6857 0.6893
vn 0.2212 0.7132 0.6651
vn 0.5314 0.8016 0.2738
vn 0.7494 0.6406 -0.1677
vn 0.7338 0.6423 -0.2213
vn 0.2403 0.7136 0.6580
vn 0.2483 0.7155 0.6530
vn 0.4810 0.8500 0.2148
vn 0.7271 0.6666 -0.1642
vn 0.7184 0.6807 -0.1431
vt 0.000000 0.161090
vt 0.000000 0.000000
vt 0.250000 0.130390
vt 0.250000 0.000000
vt 0.500000 0.000000
vt 0.500000 0.109440
vt 0.750000 0.113240
vt 0.750000 0.000000
vt 1.000000 0.000000
vt 1.000000 0.129470
vt 0.000000 0.216590
vt 0.250000 0.226780
vt 0.500000 0.219420
vt 0.750000 0.214220
vt 1.000000 0.210010
vt 0.000000 0.372020
vt 0.250000 0.348660
vt 0.500000 0.320870
vt 0.750000 0.320390
vt 1.000000 0.327940
vt 0.000000 0.420040
vt 0.250000 0.436930
vt 0.500000 0.422810
vt 0.750000 0.412960
vt 1.000000 0.404290
vt 0.000000 0.497630
vt 0.250000 0.504380
vt 0.500000 0.488080
vt 0.750000 0.477880
vt 1.000000 0.467910
vt 0.000000 0.627940
vt 0.250000 0.613610
vt 0.500000 0.580500
vt 0.750000 0.575510
vt 1.000000 0.575490
vt 0.000000 0.675880
vt 0.250000 0.694060
vt 0.500000 0.673360
vt 0.750000 0.661710
vt 1.000000 0.646280
vt 0.000000 0.792130
vt 0.250000 0.793380
vt 0.500000 0.758450
vt 0.750000 0.751260
vt 1.000000 0.743250
vt 0.000000 0.825890
vt 0.250000 0.864200
vt 0.500000 0.843950
vt 0.750000 0.831380
vt 1.000000 0.816620
vt 0.000000 0.925600
vt 0.250000 0.954470
vt 0.500000 0.921790
vt 0.750000 0.913440
vt 1.000000 0.908070
vt 0.000000 1.000000
vt 0.250000 1.000000
vt 0.500000 1.000000
vt 0.750000 1.000000
vt 1.000000 1.000000
vt 0.000000 0.154040
vt 0.250000 0.126890
vt 0.500000 0.109510
vt 0.750000 0.115110
vt 1.000000 0.129190
vt 0.000000 0.223470
vt 0.250000 0.229100
vt 0.500000 0.219450
vt 0.750000 0.214450
vt 1.000000 0.210050
vt 0.000000 0.372030
vt 0.250000 0.345810
vt 0.500000 0.320930
vt 0.750000 0.320360
vt 1.000000 0.324230
vt 0.000000 0.431600
vt 0.250000 0.437780
vt 0.500000 0.422820
vt 0.750000 0.411510
vt 1.000000 0.399290
vt 0.000000 0.499770
vt 0.250000 0.503900
vt 0.500000 0.488030
vt 0.750000 0.475030
vt 1.000000 0.464220
vt 0.000000 0.628210
vt 0.250000 0.609070
vt 0.500000 0.580490
vt 0.750000 0.571880
vt 1.000000 0.570620
vt 0.000000 0.691450
vt 0.250000 0.691430
vt 0.500000 0.673310
vt 0.750000 0.657120
vt 1.000000 0.644070
vt 0.000000 0.807810
vt 0.250000 0.787990
vt 0.500000 0.758470
vt 0.750000 0.746750
vt 1.000000 0.745360
vt 0.000000 0.860250
vt 0.250000 0.861430
vt 0.500000 0.843930
vt 0.750000 0.827990
vt 1.000000 0.814730
vt 0.000000 0.967020
vt 0.250000 0.949840
vt 0.500000 0.921820
vt 0.750000 0.910940
vt 1.000000 0.906560
vt 0.000000 0.136600
vt 0.250000 0.120760
vt 0.500000 0.109550
vt 0.750000 0.117280
vt 1.000000 0.127310
vt 0.000000 0.230990
vt 0.250000 0.222900
vt 0.500000 0.219440
vt 0.750000 0.216340
vt 1.000000 0.213270
vt 0.000000 0.356590
vt 0.250000 0.335160
vt 0.500000 0.320990
vt 0.750000 0.324060
vt 1.000000 0.331330
vt 0.000000 0.438420
vt 0.250000 0.428530
vt 0.500000 0.422840
vt 0.750000 0.416120
vt 1.000000 0.405330
vt 0.000000 0.505350
vt 0.250000 0.495400
vt 0.500000 0.488000
vt 0.750000 0.481060
vt 1.000000 0.471420
vt 0.000000 0.620770
vt 0.250000 0.598520
vt 0.500000 0.580530
vt 0.750000 0.579690
vt 1.000000 0.578550
vt 0.000000 0.695790
vt 0.250000 0.685130
vt 0.750000 0.663940
vt 1.000000 0.647140
vt 0.000000 0.801870
vt 0.250000 0.779860
vt 0.500000 0.758500
vt 0.750000 0.754730
vt 1.000000 0.749230
vt 0.000000 0.865740
vt 0.250000 0.859720
vt 0.750000 0.831570
vt 1.000000 0.814830
vt 0.000000 0.966700
vt 0.250000 0.945930
vt 0.500000 0.921850
vt 0.750000 0.913880
vt 1.000000 0.904430
vt 0.000000 0.121480
vt 0.250000 0.115730
vt 0.500000 0.109600
vt 0.750000 0.117450
vt 1.000000 0.129580
vt 0.000000 0.224150
vt 0.250000 0.221240
vt 0.500000 0.219460
vt 0.750000 0.218720
vt 1.000000 0.214950
vt 0.000000 0.339480
vt 0.250000 0.328620
vt 0.500000 0.321060
vt 0.750000 0.327370
vt 1.000000 0.333970
vt 0.000000 0.431800
vt 0.250000 0.427240
vt 0.500000 0.422880
vt 0.750000 0.419310
vt 1.000000 0.413730
vt 0.000000 0.500280
vt 0.250000 0.493470
vt 0.500000 0.488020
vt 0.750000 0.484010
vt 1.000000 0.476590
vt 0.000000 0.606260
vt 0.250000 0.591510
vt 0.500000 0.580570
vt 0.750000 0.582140
vt 1.000000 0.583710
vt 0.000000 0.691130
vt 0.250000 0.681550
vt 0.500000 0.673320
vt 0.750000 0.664660
vt 1.000000 0.654670
vt 0.000000 0.787560
vt 0.250000 0.771330
vt 0.500000 0.758520
vt 0.750000 0.755180
vt 1.000000 0.751690
vt 0.000000 0.867100
vt 0.250000 0.855090
vt 0.500000 0.843920
vt 0.750000 0.831450
vt 1.000000 0.813910
vt 0.000000 0.955320
vt 0.250000 0.937750
vt 0.500000 0.921870
vt 0.750000 0.913720
vt 1.000000 0.902340
vt 0.000000 0.144960
vt 0.250000 0.123300
vt 0.500000 0.109630
vt 0.750000 0.110420
vt 1.000000 0.112840
vt 0.000000 0.234230
vt 0.250000 0.226260
vt 0.500000 0.219470
vt 0.750000 0.214130
vt 1.000000 0.209230
vt 0.000000 0.365650
vt 0.250000 0.339780
vt 0.500000 0.321090
vt 0.750000 0.316630
vt 1.000000 0.312660
vt 0.000000 0.448400
vt 0.250000 0.435480
vt 0.500000 0.422890
vt 0.750000 0.413750
vt 1.000000 0.403410
vt 0.000000 0.517200
vt 0.250000 0.503120
vt 0.500000 0.488010
vt 0.750000 0.477630
vt 1.000000 0.465470
vt 0.000000 0.634650
vt 0.250000 0.606330
vt 0.500000 0.580580
vt 0.750000 0.571100
vt 1.000000 0.559880
vt 0.000000 0.705320
vt 0.250000 0.692030
vt 0.750000 0.659700
vt 1.000000 0.644580
vt 0.000000 0.809530
vt 0.250000 0.786400
vt 0.500000 0.758540
vt 0.750000 0.745870
vt 1.000000 0.732880
vt 0.000000 0.880640
vt 0.250000 0.863590
vt 0.750000 0.827690
vt 1.000000 0.810530
vt 0.000000 0.976630
vt 0.250000 0.949020
vt 0.500000 0.921890
vt 0.750000 0.907010
vt 1.000000 0.893310
vt 0.000000 0.122690
vt 0.250000 0.114520
vt 0.500000 0.109670
vt 0.750000 0.114330
vt 1.000000 0.119790
vt 0.000000 0.227060
vt 0.250000 0.222610
vt 0.500000 0.219480
vt 0.750000 0.216000
vt 1.000000 0.211980
vt 0.000000 0.338880
vt 0.250000 0.328970
vt 0.500000 0.321140
vt 0.750000 0.321820
vt 1.000000 0.324330
vt 0.000000 0.436070
vt 0.250000 0.428550
vt 0.500000 0.422910
vt 0.750000 0.416670
vt 1.000000 0.409850
vt 0.000000 0.504260
vt 0.250000 0.494870
vt 0.750000 0.480780
vt 1.000000 0.473880
vt 0.000000 0.605810
vt 0.250000 0.591410
vt 0.500000 0.580600
vt 0.750000 0.577190
vt 1.000000 0.576600
vt 0.000000 0.693390
vt 0.250000 0.681790
vt 0.500000 0.673300
vt 0.750000 0.663420
vt 1.000000 0.652880
vt 0.000000 0.787590
vt 0.250000 0.771150
vt 0.500000 0.758560
vt 0.750000 0.751850
vt 1.000000 0.745500
vt 0.000000 0.868480
vt 0.250000 0.855280
vt 0.750000 0.829980
vt 1.000000 0.814230
vt 0.000000 0.955190
vt 0.250000 0.937220
vt 0.500000 0.921910
vt 0.750000 0.910790
vt 1.000000 0.902380
vt 0.000000 0.115630
vt 0.250000 0.112830
vt 0.500000 0.109710
vt 0.750000 0.114340
vt 1.000000 0.119760
vt 0.000000 0.224910
vt 0.250000 0.222080
vt 0.500000 0.219500
vt 0.750000 0.217660
vt 1.000000 0.214550
vt 0.000000 0.332590
vt 0.250000 0.326590
vt 0.500000 0.321170
vt 0.750000 0.323210
vt 1.000000 0.324320
vt 0.000000 0.432090
vt 0.250000 0.427970
vt 0.500000 0.422920
vt 0.750000 0.417690
vt 1.000000 0.409410
vt 0.000000 0.499510
vt 0.250000 0.493810
vt 0.500000 0.487990
vt 0.750000 0.481690
vt 1.000000 0.471710
vt 0.000000 0.596890
vt 0.250000 0.589060
vt 0.750000 0.577320
vt 1.000000 0.572040
vt 0.000000 0.687840
vt 0.250000 0.681700
vt 0.500000 0.673290
vt 0.750000 0.662790
vt 1.000000 0.649730
vt 0.000000 0.779600
vt 0.250000 0.769480
vt 0.750000 0.750750
vt 1.000000 0.740320
vt 0.000000 0.865060
vt 0.250000 0.854990
vt 0.500000 0.843910
vt 0.750000 0.829650
vt 1.000000 0.813650
vt 0.000000 0.948020
vt 0.250000 0.935520
vt 0.500000 0.921920
vt 0.750000 0.910970
vt 1.000000 0.898620
vt 0.000000 0.117350
vt 0.250000 0.113690
vt 0.500000 0.109730
vt 0.750000 0.111460
vt 1.000000 0.112830
vt 0.000000 0.225860
vt 0.250000 0.223220
vt 0.750000 0.216070
vt 1.000000 0.212580
vt 0.000000 0.334120
vt 0.250000 0.328190
vt 0.500000 0.321190
vt 0.750000 0.318870
vt 1.000000 0.315930
vt 0.000000 0.434640
vt 0.250000 0.429470
vt 0.500000 0.422930
vt 0.750000 0.414990
vt 1.000000 0.406310
vt 0.000000 0.501080
vt 0.250000 0.495300
vt 0.500000 0.487970
vt 0.750000 0.478580
vt 1.000000 0.469390
vt 0.000000 0.599190
vt 0.250000 0.590710
vt 0.500000 0.580610
vt 0.750000 0.572260
vt 1.000000 0.563070
vt 0.000000 0.690900
vt 0.250000 0.683280
vt 0.500000 0.673280
vt 0.750000 0.660420
vt 1.000000 0.646010
vt 0.000000 0.781180
vt 0.250000 0.771350
vt 0.500000 0.758580
vt 0.750000 0.746740
vt 1.000000 0.732980
vt 0.000000 0.865460
vt 0.250000 0.856430
vt 0.750000 0.828660
vt 1.000000 0.813630
vt 0.000000 0.948230
vt 0.250000 0.937240
vt 0.500000 0.921940
vt 0.750000 0.908250
vt 1.000000 0.894150
s 1
f 289/106/277 288/107/278 290/108/279
f 288/107/278 291/109/280 290/108/279
f 291/109/280 292/110/281 290/108/279
f 290/108/279 292/110/281 293/111/282
f 293/111/282 292/110/281 294/112/283
f 292/110/281 295/113/284 294/112/283
f 295/113/284 296/114/285 294/112/283
f 294/112/283 296/114/285 297/115/286
f 298/116/287 289/106/277 299/117/288
f 289/106/277 290/108/279 299/117/288
f 290/108/279 293/111/282 299/117/288
f 299/117/288 293/111/282 300/118/289
f 300/118/289 293/111/282 301/119/290
f 293/111/282 294/112/283 301/119/290
f 294/112/283 297/115/286 301/119/290
f 301/119/290 297/115/286 302/120/291
f 303/121/292 298/116/287 304/122/293
f 298/116/287 299/117/288 304/122/293
f 299/117/288 300/118/289 304/122/293
f 304/122/293 300/118/289 305/123/294
f 305/123/294 300/118/289 306/124/295
f 300/118/289 301/119/290 306/124/295
f 301/119/290 302/120/291 306/124/295
f 306/124/295 302/120/291 307/125/296
f 308/126/297 303/121/292 309/127/298
f 303/121/292 304/122/293 309/127/298
f 304/122/293 305/123/294 309/127/298
f 309/127/298 305/123/294 310/128/299
f 310/128/299 305/123/294 311/129/300
f 305/123/294 306/124/295 311/129/300
f 306/124/295 307/125/296 311/129/300
f 311/129/300 307/125/296 312/130/301
f 313/131/302 308/126/297 314/132/303
f 308/126/297 309/127/298 314/132/303
f 309/127/298 310/128/299 314/132/303
f 314/132/303 310/128/299 315/133/304
f 315/133/304 310/128/299 316/134/305
f 310/128/299 311/129/300 316/134/305
f 311/129/300 312/130/301 316/134/305
f 316/134/305 312/130/301 317/135/306
f 318/136/307 313/131/302 319/137/308
f 313/131/302 314/132/303 319/137/308
f 314/132/303 315/133/304 319/137/308
f 319/137/308 315/133/304 320/138/309
f 320/138/309 315/133/304 321/139/310
f 315/133/304 316/134/305 321/139/310
f 316/134/305 317/135/306 321/139/310
f 321/139/310 317/135/306 322/140/311
f 323/141/312 318/136/307 324/142/313
f 318/136/307 319/137/308 324/142/313
f 319/137/308 320/138/309 324/142/313
f 324/142/313 320/138/309 325/143/314
f 325/143/314 320/138/309 326/144/315
f 320/138/309 321/139/310 326/144/315
f 321/139/310 322/140/311 326/144/315
f 326/144/315 322/140/311 327/145/316
f 328/146/317 323/141/312 329/147/318
f 323/141/312 324/142/313 329/147/318
f 324/142/313 325/143/314 329/147/318
f 329/147/318 325/143/314 330/148/319
f 330/148/319 325/143/314 331/149/320
f 325/143/314 326/144/315 331/149/320
f 326/144/315 327/145/316 331/149/320
f 331/149/320 327/145/316 332/150/321
f 333/151/322 328/146/317 334/152/323
f 328/146/317 329/147/318 334/152/323
f 329/147/318 330/148/319 334/152/323
f 334/152/323 330/148/319 335/153/324
f 335/153/324 330/148/319 336/154/325
f 330/148/319 331/149/320 336/154/325
f 331/149/320 332/150/321 336/154/325
f 336/154/325 332/150/321 337/155/326
f 338/156/327 333/151/322 339/157/328
f 333/151/322 334/152/323 339/157/328
f 334/152/323 335/153/324 339/157/328
f 339/157/328 335/153/324 340/158/329
f 340/158/329 335/153/324 341/159/330
f 335/153/324 336/154/325 341/159/330
f 336/154/325 337/155/326 341/159/330
f 341/159/330 337/155/326 342/160/331
f 343/161/332 338/156/327 344/162/333
f 338/156/327 339/157/328 344/162/333
f 339/157/328 340/158/329 344/162/333
f 344/162/333 340/158/329 345/163/334
f 345/163/334 340/158/329 346/164/335
f 340/158/329 341/159/330 346/164/335
f 341/159/330 342/160/331 346/164/335
f 346/164/335 342/160/331 347/165/336
f 349/166/337 348/107/338 350/167/339
f 348/107/338 351/109/340 350/167/339
f 351/109/340 352/110/341 350/167/339
f 350/167/339 352/110/341 353/168/342
f 353/168/342 352/110/341 354/169/343
f 352/110/341 355/113/344 354/169/343
f 355/113/344 356/114/345 354/169/343
f 354/169/343 356/114/345 357/170/346
f 358/171/347 349/166/337 359/172/348
f 349/166/337 350/167/339 359/172/348
f 350/167/339 353/168/342 359/172/348
f 359/172/348 353/168/342 360/173/349
f 360/173/349 353/168/342 361/174/350
f 353/168/342 354/169/343 361/174/350
f 354/169/343 357/170/346 361/174/350
f 361/174/350 357/170/346 362/175/351
f 363/176/352 358/171/347 364/177/353
f 358/171/347 359/172/348 364/177/353
f 359/172/348 360/173/349 364/177/353
f 364/177/353 360/173/349 365/178/354
f 365/178/354 360/173/349 366/179/355
f 360/173/349 361/174/350 366/179/355
f 361/174/350 362/175/351 366/179/355
f 366/179/355 362/175/351 367/180/356
f 368/181/357 363/176/352 369/182/358
f 363/176/352 364/177/353 369/182/358
f 364/177/353 365/178/354 369/182/358
f 369/182/358 365/178/354 370/183/359
f 370/183/359 365/178/354 371/184/360
f 365/178/354 366/179/355 371/184/360
f 366/179/355 367/180/356 371/184/360
f 371/184/360 367/180/356 372/185/361
f 373/186/362 368/181/357 374/187/363
f 368/181/357 369/182/358 374/187/363
f 369/182/358 370/183/359 374/187/363
f 374/187/363 370/183/359 375/188/364
f 375/188/364 370/183/359 376/189/365
f 370/183/359 371/184/360 376/189/365
f 371/184/360 372/185/361 376/189/365
f 376/189/365 372/185/361 377/190/366
f 378/191/367 373/186/362 379/192/368
f 373/186/362 374/187/363 379/192/368
f 374/187/363 375/188/364 379/192/368
f 379/192/368 375/188/364 380/193/369
f 380/193/369 375/188/364 381/194/370
f 375/188/364 376/189/365 381/194/370
f 376/189/365 377/190/366 381/194/370
f 381/194/370 377/190/366 382/195/371
f 383/196/372 378/191/367 384/197/373
f 378/191/367 379/192/368 384/197/373
f 379/192/368 380/193/369 384/197/373
f 384/197/373 380/193/369 385/198/374
f 385/198/374 380/193/369 386/199/375
f 380/193/369 381/194/370 386/199/375
f 381/194/370 382/195/371 386/199/375
f 386/199/375 382/195/371 387/200/376
f 388/201/377 383/196/372 389/202/378
f 383/196/372 384/197/373 389/202/378
f 384/197/373 385/198/374 389/202/378
f 389/202/378 385/198/374 390/203/379
f 390/203/379 385/198/374 391/204/380
f 385/198/374 386/199/375 391/204/380
f 386/199/375 387/200/376 391/204/380
f 391/204/380 387/200/376 392/205/381
f 393/206/382 388/201/377 394/207/383
f 388/201/377 389/202/378 394/207/383
f 389/202/378 390/203/379 394/207/383
f 394/207/383 390/203/379 395/208/384
f 395/208/384 390/203/379 396/209/385
f 390/203/379 391/204/380 396/209/385
f 391/204/380 392/205/381 396/209/385
f 396/209/385 392/205/381 397/210/386
f 398/211/387 393/206/382 399/212/388
f 393/206/382 394/207/383 399/212/388
f 394/207/383 395/208/384 399/212/388
f 399/212/388 395/208/384 400/213/389
f 400/213/389 395/208/384 401/214/390
f 395/208/384 396/209/385 401/214/390
f 396/209/385 397/210/386 401/214/390
f 401/214/390 397/210/386 402/215/391
f 403/161/392 398/211/387 404/162/393
f 398/211/387 399/212/388 404/162/393
f 399/212/388 400/213/389 404/162/393
f 404/162/393 400/213/389 405/163/394
f 405/163/394 400/213/389 406/164/395
f 400/213/389 401/214/390 406/164/395
f 401/214/390 402/215/391 406/164/395
f 406/164/395 402/215/391 407/165/396
f 409/216/397 408/107/398 410/217/399
f 408/107/398 411/109/400 410/217/399
f 411/109/400 412/110/401 410/217/399
f 410/217/399 412/110/401 413/218/402
f 413/218/402 412/110/401 414/219/403
f 412/110/401 415/113/404 414/219/403
f 415/113/404 416/114/405 414/219/403
f 414/219/403 416/114/405 417/220/406
f 418/221/407 409/216/397 419/222/408
f 409/216/397 410/217/399 419/222/408
f 410/217/399 413/218/402 419/222/408
f 419/222/408 413/218/402 420/223/409
f 420/223/409 413/218/402 421/224/410
f 413/218/402 414/219/403 421/224/410
f 414/219/403 417/220/406 421/224/410
f 421/224/410 417/220/406 422/225/411
f 423/226/412 418/221/407 424/227/413
f 418/221/407 419/222/408 424/227/413
f 419/222/408 420/223/409 424/227/413
f 424/227/413 420/223/409 425/228/414
f 425/228/414 420/223/409 426/229/415
f 420/223/409 421/224/410 426/229/415
f 421/224/410 422/225/411 426/229/415
f 426/229/415 422/225/411 427/230/416
f 428/231/417 423/226/412 429/232/418
f 423/226/412 424/227/413 429/232/418
f 424/227/413 425/228/414 429/232/418
f 429/232/418 425/228/414 430/233/419
f 430/233/419 425/228/414 431/234/420
f 425/228/414 426/229/415 431/234/420
f 426/229/415 427/230/416 431/234/420
f 431/234/420 427/230/416 432/235/421
f 433/236/422 428/231/417 434/237/423
f 428/231/417 429/232/418 434/237/423
f 429/232/418 430/233/419 434/237/423
f 434/237/423 430/233/419 435/238/424
f 435/238/424 430/233/419 436/239/425
f 430/233/419 431/234/420 436/239/425
f 431/234/420 432/235/421 436/239/425
f 436/239/425 432/235/421 437/240/426
f 438/241/427 433/236/422 439/242/428
f 433/236/422 434/237/423 439/242/428
f 434/237/423 435/238/424 439/242/428
f 439/242/428 435/238/424 440/243/429
f 440/243/429 435/238/424 441/244/430
f 435/238/424 436/239/425 441/244/430
f 436/239/425 437/240/426 441/244/430
f 441/244/430 437/240/426 442/245/431
f 443/246/432 438/241/427 444/247/433
f 438/241/427 439/242/428 444/247/433
f 439/242/428 440/243/429 444/247/433
f 444/247/433 440/243/429 445/198/434
f 445/198/434 440/243/429 446/248/435
f 440/243/429 441/244/430 446/248/435
f 441/244/430 442/245/431 446/248/435
f 446/248/435 442/245/431 447/249/436
f 448/250/437 443/246/432 449/251/438
f 443/246/432 444/247/433 449/251/438
f 444/247/433 445/198/434 449/251/438
f 449/251/438 445/198/434 450/252/439
f 450/252/439 445/198/434 451/253/440
f 445/198/434 446/248/435 451/253/440
f 446/248/435 447/249/436 451/253/440
f 451/253/440 447/249/436 452/254/441
f 453/255/442 448/250/437 454/256/443
f 448/250/437 449/251/438 454/256/443
f 449/251/438 450/252/439 454/256/443
f 454/256/443 450/252/439 455/208/444
f 455/208/444 450/252/439 456/257/445
f 450/252/439 451/253/440 456/257/445
f 451/253/440 452/254/441 456/257/445
f 456/257/445 452/254/441 457/258/446
f 458/259/447 453/255/442 459/260/448
f 453/255/442 454/256/443 459/260/448
f 454/256/443 455/208/444 459/260/448
f 459/260/448 455/208/444 460/261/449
f 460/261/449 455/208/444 461/262/450
f 455/208/444 456/257/445 461/262/450
f 456/257/445 457/258/446 461/262/450
f 461/262/450 457/258/446 462/263/451
f 463/161/452 458/259/447 464/162/453
f 458/259/447 459/260/448 464/162/453
f 459/260/448 460/261/449 464/162/453
f 464/162/453 460/261/449 465/163/454
f 465/163/454 460/261/449 466/164/455
f 460/261/449 461/262/450 466/164/455
f 461/262/450 462/263/451 466/164/455
f 466/164/455 462/263/451 467/165/456
f 469/264/457 468/107/458 470/265/459
f 468/107/458 471/109/460 470/265/459
f 471/109/460 472/110/461 470/265/459
f 470/265/459 472/110/461 473/266/462
f 473/266/462 472/110/461 474/267/463
f 472/110/461 475/113/464 474/267/463
f 475/113/464 476/114/465 474/267/463
f 474/267/463 476/114/465 477/268/466
f 478/269/467 469/264/457 479/270/468
f 469/264/457 470/265/459 479/270/468
f 470/265/459 473/266/462 479/270/468
f 479/270/468 473/266/462 480/271/469
f 480/271/469 473/266/462 481/272/470
f 473/266/462 474/267/463 481/272/470
f 474/267/463 477/268/466 481/272/470
f 481/272/470 477/268/466 482/273/471
f 483/274/472 478/269/467 484/275/473
f 478/269/467 479/270/468 484/275/473
f 479/270/468 480/271/469 484/275/473
f 484/275/473 480/271/469 485/276/474
f 485/276/474 480/271/469 486/277/475
f 480/271/469 481/272/470 486/277/475
f 481/272/470 482/273/471 486/277/475
f 486/277/475 482/273/471 487/278/476
f 488/279/477 483/274/472 489/280/478
f 483/274/472 484/275/473 489/280/478
f 484/275/473 485/276/474 489/280/478
f 489/280/478 485/276/474 490/281/479
f 490/281/479 485/276/474 491/282/480
f 485/276/474 486/277/475 491/282/480
f 486/277/475 487/278/476 491/282/480
f 491/282/480 487/278/476 492/283/481
f 493/284/482 488/279/477 494/285/483
f 488/279/477 489/280/478 494/285/483
f 489/280/478 490/281/479 494/285/483
f 494/285/483 490/281/479 495/286/484
f 495/286/484 490/281/479 496/287/485
f 490/281/479 491/282/480 496/287/485
f 491/282/480 492/283/481 496/287/485
f 496/287/485 492/283/481 497/288/486
f 498/289/487 493/284/482 499/290/488
f 493/284/482 494/285/483 499/290/488
f 494/285/483 495/286/484 499/290/488
f 499/290/488 495/286/484 500/291/489
f 500/291/489 495/286/484 501/292/490
f 495/286/484 496/287/485 501/292/490
f 496/287/485 497/288/486 501/292/490
f 501/292/490 497/288/486 502/293/491
f 503/294/492 498/289/487 504/295/493
f 498/289/487 499/290/488 504/295/493
f 499/290/488 500/291/489 504/295/493
f 504/295/493 500/291/489 505/296/494
f 505/296/494 500/291/489 506/297/495
f 500/291/489 501/292/490 506/297/495
f 501/292/490 502/293/491 506/297/495
f 506/297/495 502/293/491 507/298/496
f 508/299/497 503/294/492 509/300/498
f 503/294/492 504/295/493 509/300/498
f 504/295/493 505/296/494 509/300/498
f 509/300/498 505/296/494 510/301/499
f 510/301/499 505/296/494 511/302/500
f 505/296/494 506/297/495 511/302/500
f 506/297/495 507/298/496 511/302/500
f 511/302/500 507/298/496 512/303/501
f 513/304/502 508/299/497 514/305/503
f 508/299/497 509/300/498 514/305/503
f 509/300/498 510/301/499 514/305/503
f 514/305/503 510/301/499 515/306/504
f 515/306/504 510/301/499 516/307/505
f 510/301/499 511/302/500 516/307/505
f 511/302/500 512/303/501 516/307/505
f 516/307/505 512/303/501 517/308/506
f 518/309/507 513/304/502 519/310/508
f 513/304/502 514/305/503 519/310/508
f 514/305/503 515/306/504 519/310/508
f 519/310/508 515/306/504 520/311/509
f 520/311/509 515/306/504 521/312/510
f 515/306/504 516/307/505 521/312/510
f 516/307/505 517/308/506 521/312/510
f 521/312/510 517/308/506 522/313/511
f 523/161/512 518/309/507 524/162/513
f 518/309/507 519/310/508 524/162/513
f 519/310/508 520/311/509 524/162/513
f 524/162/513 520/311/509 525/163/514
f 525/163/514 520/311/509 526/164/515
f 520/311/509 521/312/510 526/164/515
f 521/312/510 522/313/511 526/164/515
f 526/164/515 522/313/511 527/165/516
f 529/314/517 528/107/518 530/315/519
f 528/107/518 531/109/520 530/315/519
f 531/109/520 532/110/521 530/315/519
f 530/315/519 532/110/521 533/316/522
f 533/316/522 532/110/521 534/317/523
f 532/110/521 535/113/524 534/317/523
f 535/113/524 536/114/525 534/317/523
f 534/317/523 536/114/525 537/318/526
f 538/319/527 529/314/517 539/320/528
f 529/314/517 530/315/519 539/320/528
f 530/315/519 533/316/522 539/320/528
f 539/320/528 533/316/522 540/321/529
f 540/321/529 533/316/522 541/322/530
f 533/316/522 534/317/523 541/322/530
f 534/317/523 537/318/526 541/322/530
f 541/322/530 537/318/526 542/323/531
f 543/324/532 538/319/527 544/325/533
f 538/319/527 539/320/528 544/325/533
f 539/320/528 540/321/529 544/325/533
f 544/325/533 540/321/529 545/326/534
f 545/326/534 540/321/529 546/327/535
f 540/321/529 541/322/530 546/327/535
f 541/322/530 542/323/531 546/327/535
f 546/327/535 542/323/531 547/328/536
f 548/329/537 543/324/532 549/330/538
f 543/324/532 544/325/533 549/330/538
f 544/325/533 545/326/534 549/330/538
f 549/330/538 545/326/534 550/331/539
f 550/331/539 545/326/534 551/332/540
f 545/326/534 546/327/535 551/332/540
f 546/327/535 547/328/536 551/332/540
f 551/332/540 547/328/536 552/333/541
f 553/334/542 548/329/537 554/335/543
f 548/329/537 549/330/538 554/335/543
f 549/330/538 550/331/539 554/335/543
f 554/335/543 550/331/539 555/336/544
f 555/336/544 550/331/539 556/337/545
f 550/331/539 551/332/540 556/337/545
f 551/332/540 552/333/541 556/337/545
f 556/337/545 552/333/541 557/338/546
f 558/339/547 553/334/542 559/340/548
f 553/334/542 554/335/543 559/340/548
f 554/335/543 555/336/544 559/340/548
f 559/340/548 555/336/544 560/341/549
f 560/341/549 555/336/544 561/342/550
f 555/336/544 556/337/545 561/342/550
f 556/337/545 557/338/546 561/342/550
f 561/342/550 557/338/546 562/343/551
f 563/344/552 558/339/547 564/345/553
f 558/339/547 559/340/548 564/345/553
f 559/340/548 560/341/549 564/345/553
f 564/345/553 560/341/549 565/198/554
f 565/198/554 560/341/549 566/346/555
f 560/341/549 561/342/550 566/346/555
f 561/342/550 562/343/551 566/346/555
f 566/346/555 562/343/551 567/347/556
f 568/348/557 563/344/552 569/349/558
f 563/344/552 564/345/553 569/349/558
f 564/345/553 565/198/554 569/349/558
f 569/349/558 565/198/554 570/350/559
f 570/350/559 565/198/554 571/351/560
f 565/198/554 566/346/555 571/351/560
f 566/346/555 567/347/556 571/351/560
f 571/351/560 567/347/556 572/352/561
f 573/353/562 568/348/557 574/354/563
f 568/348/557 569/349/558 574/354/563
f 569/349/558 570/350/559 574/354/563
f 574/354/563 570/350/559 575/306/564
f 575/306/564 570/350/559 576/355/565
f 570/350/559 571/351/560 576/355/565
f 571/351/560 572/352/561 576/355/565
f 576/355/565 572/352/561 577/356/566
f 578/357/567 573/353/562 579/358/568
f 573/353/562 574/354/563 579/358/568
f 574/354/563 575/306/564 579/358/568
f 579/358/568 575/306/564 580/359/569
f 580/359/569 575/306/564 581/360/570
f 575/306/564 576/355/565 581/360/570
f 576/355/565 577/356/566 581/360/570
f 581/360/570 577/356/566 582/361/571
f 583/161/572 578/357/567 584/162/573
f 578/357/567 579/358/568 584/162/573
f 579/358/568 580/359/569 584/162/573
f 584/162/573 580/359/569 585/163/574
f 585/163/574 580/359/569 586/164/575
f 580/359/569 581/360/570 586/164/575
f 581/360/570 582/361/571 586/164/575
f 586/164/575 582/361/571 587/165/576
f 589/362/577 588/107/578 590/363/579
f 588/107/578 591/109/580 590/363/579
f 591/109/580 592/110/581 590/363/579
f 590/363/579 592/110/581 593/364/582
f 593/364/582 592/110/581 594/365/583
f 592/110/581 595/113/584 594/365/583
f 595/113/584 596/114/585 594/365/583
f 594/365/583 596/114/585 597/366/586
f 598/367/587 589/362/577 599/368/588
f 589/362/577 590/363/579 599/368/588
f 590/363/579 593/364/582 599/368/588
f 599/368/588 593/364/582 600/369/589
f 600/369/589 593/364/582 601/370/590
f 593/364/582 594/365/583 601/370/590
f 594/365/583 597/366/586 601/370/590
f 601/370/590 597/366/586 602/371/591
f 603/372/592 598/367/587 604/373/593
f 598/367/587 599/368/588 604/373/593
f 599/368/588 600/369/589 604/373/593
f 604/373/593 600/369/589 605/374/594
f 605/374/594 600/369/589 606/375/595
f 600/369/589 601/370/590 606/375/595
f 601/370/590 602/371/591 606/375/595
f 606/375/595 602/371/591 607/376/596
f 608/377/597 603/372/592 609/378/598
f 603/372/592 604/373/593 609/378/598
f 604/373/593 605/374/594 609/378/598
f 609/378/598 605/374/594 610/379/599
f 610/379/599 605/374/594 611/380/600
f 605/374/594 606/375/595 611/380/600
f 606/375/595 607/376/596 611/380/600
f 611/380/600 607/376/596 612/381/601
f 613/382/602 608/377/597 614/383/603
f 608/377/597 609/378/598 614/383/603
f 609/378/598 610/379/599 614/383/603
f 614/383/603 610/379/599 615/238/604
f 615/238/604 610/379/599 616/384/605
f 610/379/599 611/380/600 616/384/605
f 611/380/600 612/381/601 616/384/605
f 616/384/605 612/381/601 617/385/606
f 618/386/607 613/382/602 619/387/608
f 613/382/602 614/383/603 619/387/608
f 614/383/603 615/238/604 619/387/608
f 619/387/608 615/238/604 620/388/609
f 620/388/609 615/238/604 621/389/610
f 615/238/604 616/384/605 621/389/610
f 616/384/605 617/385/606 621/389/610
f 621/389/610 617/385/606 622/390/611
f 623/391/612 618/386/607 624/392/613
f 618/386/607 619/387/608 624/392/613
f 619/387/608 620/388/609 624/392/613
f 624/392/613 620/388/609 625/393/614
f 625/393/614 620/388/609 626/394/615
f 620/388/609 621/389/610 626/394/615
f 621/389/610 622/390/611 626/394/615
f 626/394/615 622/390/611 627/395/616
f 628/396/617 623/391/612 629/397/618
f 623/391/612 624/392/613 629/397/618
f 624/392/613 625/393/614 629/397/618
f 629/397/618 625/393/614 630/398/619
f 630/398/619 625/393/614 631/399/620
f 625/393/614 626/394/615 631/399/620
f 626/394/615 627/395/616 631/399/620
f 631/399/620 627/395/616 632/400/621
f 633/401/622 628/396/617 634/402/623
f 628/396/617 629/397/618 634/402/623
f 629/397/618 630/398/619 634/402/623
f 634/402/623 630/398/619 635/306/624
f 635/306/624 630/398/619 636/403/625
f 630/398/619 631/399/620 636/403/625
f 631/399/620 632/400/621 636/403/625
f 636/403/625 632/400/621 637/404/626
f 638/405/627 633/401/622 639/406/628
f 633/401/622 634/402/623 639/406/628
f 634/402/623 635/306/624 639/406/628
f 639/406/628 635/306/624 640/407/629
f 640/407/629 635/306/624 641/408/630
f 635/306/624 636/403/625 641/408/630
f 636/403/625 637/404/626 641/408/630
f 641/408/630 637/404/626 642/409/631
f 643/161/632 638/405/627 644/162/633
f 638/405/627 639/406/628 644/162/633
f 639/406/628 640/407/629 644/162/633
f 644/162/633 640/407/629 645/163/634
f 645/163/634 640/407/629 646/164/635
f 640/407/629 641/408/630 646/164/635
f 641/408/630 642/409/631 646/164/635
f 646/164/635 642/409/631 647/165/636
f 649/410/637 648/107/638 650/411/639
f 648/107/638 651/109/640 650/411/639
f 651/109/640 652/110/641 650/411/639
f 650/411/639 652/110/641 653/412/642
f 653/412/642 652/110/641 654/413/643
f 652/110/641 655/113/644 654/413/643
f 655/113/644 656/114/645 654/413/643
f 654/413/643 656/114/645 657/414/646
f 658/415/647 649/410/637 659/416/648
f 649/410/637 650/411/639 659/416/648
f 650/411/639 653/412/642 659/416/648
f 659/416/648 653/412/642 660/417/649
f 660/417/649 653/412/642 661/418/650
f 653/412/642 654/413/643 661/418/650
f 654/413/643 657/414/646 661/418/650
f 661/418/650 657/414/646 662/419/651
f 663/420/652 658/415/647 664/421/653
f 658/415/647 659/416/648 664/421/653
f 659/416/648 660/417/649 664/421/653
f 664/421/653 660/417/649 665/422/654
f 665/422/654 660/417/649 666/423/655
f 660/417/649 661/418/650 666/423/655
f 661/418/650 662/419/651 666/423/655
f 666/423/655 662/419/651 667/424/656
f 668/425/657 663/420/652 669/426/658
f 663/420/652 664/421/653 669/426/658
f 664/421/653 665/422/654 669/426/658
f 669/426/658 665/422/654 670/427/659
f 670/427/659 665/422/654 671/428/660
f 665/422/654 666/423/655 671/428/660
f 666/423/655 667/424/656 671/428/660
f 671/428/660 667/424/656 672/429/661
f 673/430/662 668/425/657 674/431/663
f 668/425/657 669/426/658 674/431/663
f 669/426/658 670/427/659 674/431/663
f 674/431/663 670/427/659 675/432/664
f 675/432/664 670/427/659 676/433/665
f 670/427/659 671/428/660 676/433/665
f 671/428/660 672/429/661 676/433/665
f 676/433/665 672/429/661 677/434/666
f 678/435/667 673/430/662 679/436/668
f 673/430/662 674/431/663 679/436/668
f 674/431/663 675/432/664 679/436/668
f 679/436/668 675/432/664 680/388/669
f 680/388/669 675/432/664 681/437/670
f 675/432/664 676/433/665 681/437/670
f 676/433/665 677/434/666 681/437/670
f 681/437/670 677/434/666 682/438/671
f 683/439/672 678/435/667 684/440/673
f 678/435/667 679/436/668 684/440/673
f 679/436/668 680/388/669 684/440/673
f 684/440/673 680/388/669 685/441/674
f 685/441/674 680/388/669 686/442/675
f 680/388/669 681/437/670 686/442/675
f 681/437/670 682/438/671 686/442/675
f 686/442/675 682/438/671 687/443/676
f 688/444/677 683/439/672 689/445/678
f 683/439/672 684/440/673 689/445/678
f 684/440/673 685/441/674 689/445/678
f 689/445/678 685/441/674 690/398/679
f 690/398/679 685/441/674 691/446/680
f 685/441/674 686/442/675 691/446/680
f 686/442/675 687/443/676 691/446/680
f 691/446/680 687/443/676 692/447/681
f 693/448/682 688/444/677 694/449/683
f 688/444/677 689/445/678 694/449/683
f 689/445/678 690/398/679 694/449/683
f 694/449/683 690/398/679 695/450/684
f 695/450/684 690/398/679 696/451/685
f 690/398/679 691/446/680 696/451/685
f 691/446/680 692/447/681 696/451/685
f 696/451/685 692/447/681 697/452/686
f 698/453/687 693/448/682 699/454/688
f 693/448/682 694/449/683 699/454/688
f 694/449/683 695/450/684 699/454/688
f 699/454/688 695/450/684 700/455/689
f 700/455/689 695/450/684 701/456/690
f 695/450/684 696/451/685 701/456/690
f 696/451/685 697/452/686 701/456/690
f 701/456/690 697/452/686 702/457/691
f 703/161/692 698/453/687 704/162/693
f 698/453/687 699/454/688 704/162/693
f 699/454/688 700/455/689 704/162/693
f 704/162/693 700/455/689 705/163/694
f 705/163/694 700/455/689 706/164/695
f 700/455/689 701/456/690 706/164/695
f 701/456/690 702/457/691 706/164/695
f 706/164/695 702/457/691 707/165/696
f 709/458/697 708/107/698 710/459/699
f 708/107/698 711/109/700 710/459/699
f 711/109/700 712/110/701 710/459/699
f 710/459/699 712/110/701 713/460/702
f 713/460/702 712/110/701 714/461/703
f 712/110/701 715/113/704 714/461/703
f 715/113/704 716/114/705 714/461/703
f 714/461/703 716/114/705 717/462/706
f 718/463/707 709/458/697 719/464/708
f 709/458/697 710/459/699 719/464/708
f 710/459/699 713/460/702 719/464/708
f 719/464/708 713/460/702 720/417/709
f 720/417/709 713/460/702 721/465/710
f 713/460/702 714/461/703 721/465/710
f 714/461/703 717/462/706 721/465/710
f 721/465/710 717/462/706 722/466/711
f 723/467/712 718/463/707 724/468/713
f 718/463/707 719/464/708 724/468/713
f 719/464/708 720/417/709 724/468/713
f 724/468/713 720/417/709 725/469/714
f 725/469/714 720/417/709 726/470/715
f 720/417/709 721/465/710 726/470/715
f 721/465/710 722/466/711 726/470/715
f 726/470/715 722/466/711 727/471/716
f 728/472/717 723/467/712 729/473/718
f 723/467/712 724/468/713 729/473/718
f 724/468/713 725/469/714 729/473/718
f 729/473/718 725/469/714 730/474/719
f 730/474/719 725/469/714 731/475/720
f 725/469/714 726/470/715 731/475/720
f 726/470/715 727/471/716 731/475/720
f 731/475/720 727/471/716 732/476/721
f 733/477/722 728/472/717 734/478/723
f 728/472/717 729/473/718 734/478/723
f 729/473/718 730/474/719 734/478/723
f 734/478/723 730/474/719 735/479/724
f 735/479/724 730/474/719 736/480/725
f 730/474/719 731/475/720 736/480/725
f 731/475/720 732/476/721 736/480/725
f 736/480/725 732/476/721 737/481/726
f 738/482/727 733/477/722 739/483/728
f 733/477/722 734/478/723 739/483/728
f 734/478/723 735/479/724 739/483/728
f 739/483/728 735/479/724 740/484/729
f 740/484/729 735/479/724 741/485/730
f 735/479/724 736/480/725 741/485/730
f 736/480/725 737/481/726 741/485/730
f 741/485/730 737/481/726 742/486/731
f 743/487/732 738/482/727 744/488/733
f 738/482/727 739/483/728 744/488/733
f 739/483/728 740/484/729 744/488/733
f 744/488/733 740/484/729 745/489/734
f 745/489/734 740/484/729 746/490/735
f 740/484/729 741/485/730 746/490/735
f 741/485/730 742/486/731 746/490/735
f 746/490/735 742/486/731 747/491/736
f 748/492/737 743/487/732 749/493/738
f 743/487/732 744/488/733 749/493/738
f 744/488/733 745/489/734 749/493/738
f 749/493/738 745/489/734 750/494/739
f 750/494/739 745/489/734 751/495/740
f 745/489/734 746/490/735 751/495/740
f 746/490/735 747/491/736 751/495/740
f 751/495/740 747/491/736 752/496/741
f 753/497/742 748/492/737 754/498/743
f 748/492/737 749/493/738 754/498/743
f 749/493/738 750/494/739 754/498/743
f 754/498/743 750/494/739 755/450/744
f 755/450/744 750/494/739 756/499/745
f 750/494/739 751/495/740 756/499/745
f 751/495/740 752/496/741 756/499/745
f 756/499/745 752/496/741 757/500/746
f 758/501/747 753/497/742 759/502/748
f 753/497/742 754/498/743 759/502/748
f 754/498/743 755/450/744 759/502/748
f 759/502/748 755/450/744 760/503/749
f 760/503/749 755/450/744 761/504/750
f 755/450/744 756/499/745 761/504/750
f 756/499/745 757/500/746 761/504/750
f 761/504/750 757/500/746 762/505/751
f 763/161/752 758/501/747 764/162/753
f 758/501/747 759/502/748 764/162/753
f 759/502/748 760/503/749 764/162/753
f 764/162/753 760/503/749 765/163/754
f 765/163/754 760/503/749 766/164/755
f 760/503/749 761/504/750 766/164/755
f 761/504/750 762/505/751 766/164/755
f 766/164/755 762/505/751 767/165/756
